<svg xmlns="http://www.w3.org/2000/svg" xmlns:xlink="http://www.w3.org/1999/xlink" version="1.1" id="Layer_1" x="0px" y="0px" viewBox="0 0 436 250" style="enable-background:new 0 0 436 250;" xml:space="preserve">
<style type="text/css">
	.st0{fill-rule:evenodd;clip-rule:evenodd;fill:#F05E22;}
	.st1{fill-rule:evenodd;clip-rule:evenodd;fill:#FEFEFE;}
	.st2{fill-rule:evenodd;clip-rule:evenodd;fill:#C1151E;}
	.st3{fill-rule:evenodd;clip-rule:evenodd;fill:#0092BE;}
	.st4{fill-rule:evenodd;clip-rule:evenodd;fill:#FFFFFF;}
</style>
<g id="Page-1">
	<g id="Group-28" transform="translate(-0.000000, 0.000000)">
		<polygon id="Fill-1" class="st0" points="43.4,37.7 7,249 213.5,249 250,37.7   "/>
		<path id="Fill-2" class="st1" d="M111.7,145.7l29.8-44.4l15.7,44.4H111.7z M185,224.1h26.6l-62-174l-117,174h26.6l35.3-52.6h71.9    L185,224.1z"/>
		<polygon id="Fill-3" class="st2" points="186,211.7 213.6,249.6 220.4,211.7   "/>
		<polygon id="Fill-4" class="st3" points="222.5,0.4 186,211.7 392.6,211.7 429,0.4   "/>
		<g id="Group-27" transform="translate(217.472761, 24.971372)">
			<path id="Fill-5" class="st4" d="M79,109.8h42.4C109.8,126.1,91.7,137,73.1,137c-28.2,0-47-25-42-55.7c5-30.8,31.8-55.7,60-55.7     c18.7,0,33.3,11,39.5,27.4H156c-5.6-30.7-29.1-52.5-60.8-52.5c-40.9,0-79.8,36.2-87,80.9c-7.2,44.7,20.1,80.9,60.9,80.9     c31.7,0,62.2-21.7,77.7-52.3h0.1l4.1-25.2H83L79,109.8z"/>
		</g>
	</g>
</g>
</svg>