<?xml version="1.0" encoding="utf-8"?>
<!-- Generator: Adobe Illustrator 19.2.1, SVG Export Plug-In . SVG Version: 6.00 Build 0)  -->
<svg version="1.1" id="layer" xmlns="http://www.w3.org/2000/svg" xmlns:xlink="http://www.w3.org/1999/xlink" x="0px" y="0px"
	 viewBox="0 0 652 652" style="enable-background:new 0 0 652 652;" xml:space="preserve" fill="#fff">
<g>
	<path d="M-104.9,72.9h12.2v498.4h-12.2V72.9L-104.9,72.9z M3.2,333.6h-23.5v76.6H3.2c10.1,0,17.6-3.3,22.8-9.8
		c5.1-6.5,7.7-16.2,7.7-28.9c0-12.2-2.6-21.6-7.8-28.1C20.6,336.8,13.1,333.6,3.2,333.6L3.2,333.6z M-33.9,422.4V322H4.4
		c14,0,24.7,4.2,32.2,12.5c7.4,8.4,11.1,20.4,11.1,36.2c0,16.3-3.8,29-11.6,38.1c-7.7,9.1-18.5,13.6-32.3,13.6H-33.9L-33.9,422.4z
		 M70,379.3h40.1c0-6.8-1.8-12.1-5.2-15.8c-3.4-3.7-8.2-5.6-14.5-5.6c-6,0-10.8,1.8-14.3,5.5C72.6,367,70.6,372.3,70,379.3L70,379.3
		z M109.8,398.8H122c-1.3,8-4.8,14.4-10.5,19c-5.7,4.6-12.8,7-21.5,7c-10.1,0-18.1-3.4-24-10.2c-5.9-6.8-8.8-16.1-8.8-27.9
		c0-12.5,2.9-22.2,8.7-29.2c5.8-7,13.8-10.5,24.1-10.5c10.5,0,18.6,3.2,24.4,9.7c5.7,6.5,8.6,15.6,8.6,27.3c0,1.5,0,2.6,0,3.3
		c0,0.7-0.1,1.4-0.2,2.1H70.1c0.1,7.7,2,13.6,5.7,17.8c3.7,4.2,8.8,6.3,15.3,6.3c5,0,9.1-1.3,12.4-3.9
		C106.8,407.2,108.9,403.6,109.8,398.8L109.8,398.8z M145.5,386.4c0,9.1,1.8,15.9,5.4,20.5c3.6,4.6,9,6.9,16.3,6.9
		c6.9,0,12.2-2.5,16-7.5c3.8-5,5.6-12.1,5.6-21.4c0-8.3-1.9-14.9-5.8-19.6c-3.9-4.8-9.2-7.2-15.9-7.2c-6.9,0-12.2,2.5-16,7.4
		C147.4,370.3,145.5,377.3,145.5,386.4L145.5,386.4z M133.9,449.9V349.4h12v10.3c3-4.4,6.5-7.6,10.3-9.6c3.8-2,8.3-3.1,13.5-3.1
		c9.7,0,17.5,3.5,23.3,10.5c5.8,7,8.7,16.4,8.7,28.2c0,11.9-2.9,21.4-8.8,28.4c-5.9,7-13.6,10.6-23.3,10.6c-5.1,0-9.6-0.9-13.5-2.8
		c-3.9-1.8-7.3-4.6-10.1-8.4v36.4H133.9L133.9,449.9z M257.6,412.7c-3.8,4-7.9,7-12.2,9c-4.3,2-9,3-13.7,3c-7.5,0-13.3-1.9-17.5-5.8
		c-4.2-3.9-6.3-9.3-6.3-16.1c0-6.6,2.1-11.8,6.2-15.6c4.1-3.8,10.4-6.2,18.8-7.3c2.1-0.2,5-0.5,8.7-1c6.2-0.6,10.1-1.3,11.5-1.8
		c1.4-0.5,2.3-1.3,2.8-2.1c0.5-0.9,0.7-2.8,0.7-5.8c0-3.7-1.4-6.5-4.1-8.4c-2.7-1.9-6.8-2.8-12.3-2.8c-5.7,0-10,1.1-12.9,3.4
		s-4.3,5.6-4.3,10.1h-11.6v-0.5c0-7.4,2.6-13.2,7.8-17.5c5.2-4.3,12.3-6.4,21.4-6.4c9.8,0,17,1.8,21.6,5.5c4.6,3.7,6.9,9.4,6.9,17.2
		v36.6c0,3.1,0.3,5.2,1,6.1c0.7,0.9,1.9,1.4,3.7,1.4c0.4,0,0.8,0,1.3-0.1c0.5-0.1,1.1-0.2,1.9-0.3v9.5c-1.5,0.4-2.8,0.7-3.9,0.9
		c-1.1,0.2-2.2,0.2-3.2,0.2c-4.1,0-7.2-0.9-9.2-2.7c-2-1.8-3.1-4.5-3.1-8L257.6,412.7L257.6,412.7z M256.4,385.3
		c-3.3,1.8-8.9,3.2-16.8,4.2c-2.8,0.4-4.9,0.7-6.3,0.9c-4.5,0.7-7.7,2-9.6,4c-2,1.9-2.9,4.7-2.9,8.3s1.1,6.4,3.4,8.4
		s5.5,2.9,9.7,2.9c6.6,0,12-1.7,16.2-5c4.2-3.3,6.3-7.6,6.3-12.7L256.4,385.3L256.4,385.3z M284.5,422.4v-73h11.9v13.1
		c1.9-4.9,4.6-8.6,7.9-11c3.3-2.4,7.4-3.7,12.3-3.7c0.9,0,1.6,0,2,0c0.4,0,0.8,0.1,1.2,0.2v13c-0.4-0.1-0.7-0.1-1.1-0.1
		c-0.4,0-1,0-1.8,0c-6.5,0-11.5,1.8-15,5.4c-3.4,3.6-5.1,8.8-5.1,15.6v40.6L284.5,422.4L284.5,422.4z M353.5,404
		c0,3.3,0.5,5.5,1.4,6.6c0.9,1.1,2.7,1.6,5.2,1.6c0.7,0,1.6,0,2.6-0.1c1,0,2.4-0.1,4-0.3v10.4c-2,0.4-3.9,0.6-5.5,0.8
		c-1.6,0.2-3.1,0.3-4.3,0.3c-5.8,0-9.8-1.1-12.1-3.3c-2.3-2.2-3.5-6.2-3.5-11.9v-49h-10.9v-9.8h10.9V329h12.3v20.4h13.2v9.8h-13.2
		L353.5,404L353.5,404z M466.7,422.4v-44.9c0-7.4-1-12.4-3-15.1c-2-2.7-5.5-4.1-10.4-4.1c-5.9,0-10.5,1.8-13.8,5.5
		c-3.3,3.7-4.9,8.8-4.9,15.4v43.2h-12.5v-44.9c0-7.4-1-12.4-3-15.1c-2-2.7-5.5-4.1-10.4-4.1c-5.9,0-10.5,1.9-13.8,5.6
		c-3.3,3.7-5,8.8-5,15.4v43.2h-12.3v-73h11.7v10.3c2.7-4.1,6-7.1,9.7-9.1c3.7-2,8.1-3,13.1-3c4.5,0,8.4,0.9,11.7,2.8
		c3.2,1.8,6,4.7,8.3,8.7c3.2-4,6.7-6.9,10.4-8.7c3.8-1.8,8.1-2.8,13-2.8c4.7,0,8.8,0.9,12.3,2.6c3.5,1.7,6.2,4.2,8.1,7.4
		c1,1.9,1.8,4.1,2.2,6.7c0.5,2.6,0.7,6.7,0.7,12.3v46L466.7,422.4L466.7,422.4z M503.3,379.3h40.1c0-6.8-1.8-12.1-5.2-15.8
		c-3.4-3.7-8.2-5.6-14.5-5.6c-6,0-10.8,1.8-14.3,5.5C506,367,503.9,372.3,503.3,379.3L503.3,379.3z M543.2,398.8h12.1
		c-1.3,8-4.8,14.4-10.5,19c-5.7,4.6-12.8,7-21.5,7c-10.1,0-18.1-3.4-24-10.2c-5.9-6.8-8.8-16.1-8.8-27.9c0-12.5,2.9-22.2,8.7-29.2
		c5.8-7,13.8-10.5,24.1-10.5c10.5,0,18.6,3.2,24.4,9.7c5.8,6.5,8.6,15.6,8.6,27.3c0,1.5,0,2.6,0,3.3c0,0.7-0.1,1.4-0.2,2.1h-52.7
		c0.1,7.7,2,13.6,5.7,17.8c3.7,4.2,8.8,6.3,15.3,6.3c5,0,9.1-1.3,12.4-3.9C540.1,407.2,542.2,403.6,543.2,398.8L543.2,398.8z
		 M614.2,422.4v-44.9c0-7.2-1.1-12.1-3.3-14.9c-2.2-2.8-6-4.1-11.4-4.1c-6.9,0-12.2,1.9-16,5.8c-3.8,3.9-5.7,9.4-5.7,16.5v41.6
		h-12.3v-73h11.7V360c2.8-4.2,6.2-7.4,10-9.4c3.9-2,8.3-3.1,13.4-3.1c5.5,0,10.1,0.8,13.9,2.5c3.8,1.7,6.7,4.1,8.7,7.5
		c1.1,1.8,2,3.9,2.5,6.2c0.5,2.4,0.8,6.2,0.8,11.4v47.3H614.2L614.2,422.4z M657.3,404c0,3.3,0.5,5.5,1.4,6.6
		c0.9,1.1,2.7,1.6,5.2,1.6c0.7,0,1.6,0,2.6-0.1s2.4-0.1,4-0.3v10.4c-2,0.4-3.9,0.6-5.5,0.8c-1.6,0.2-3.1,0.3-4.3,0.3
		c-5.8,0-9.8-1.1-12.1-3.3c-2.3-2.2-3.5-6.2-3.5-11.9v-49h-10.9v-9.8H645V329h12.3v20.4h13.2v9.8h-13.2L657.3,404L657.3,404z
		 M-30.9,569.5v-63.3h-12v-9.7h12v-10.8c0-6,1.4-10.6,4.1-13.6c2.7-3,6.9-4.5,12.4-4.5c0.9,0,2,0.1,3.3,0.2c1.3,0.1,3.2,0.4,5.8,0.8
		v11c-1.3-0.2-2.4-0.4-3.3-0.5c-0.9-0.1-1.6-0.2-2.1-0.2c-2.9,0-4.9,0.8-6,2.4c-1.1,1.6-1.7,4.6-1.7,9.1v6.1h13.2v9.7h-13.2v63.3
		L-30.9,569.5L-30.9,569.5z M9.9,532.9c0,9,1.9,16,5.8,20.8c3.9,4.8,9.4,7.2,16.7,7.2c7.2,0,12.7-2.4,16.5-7.2
		c3.8-4.8,5.7-11.7,5.7-20.8c0-9-1.9-15.9-5.7-20.7c-3.8-4.8-9.3-7.2-16.5-7.2c-7.3,0-12.8,2.4-16.7,7.2
		C11.8,516.9,9.9,523.8,9.9,532.9L9.9,532.9z M-2.7,532.9c0-12.2,3.1-21.8,9.2-28.6c6.1-6.8,14.7-10.2,25.7-10.2
		c11.1,0,19.7,3.4,25.8,10.2c6.1,6.8,9.2,16.3,9.2,28.6c0,12.3-3.1,21.8-9.2,28.6s-14.7,10.2-25.7,10.2c-11.1,0-19.7-3.4-25.9-10.2
		C0.4,554.8-2.7,545.2-2.7,532.9L-2.7,532.9z M77.5,569.5v-73h11.9v13.1c2-4.9,4.6-8.6,7.9-11c3.3-2.4,7.4-3.7,12.3-3.7
		c0.9,0,1.6,0,2,0c0.4,0,0.8,0.1,1.2,0.2v13c-0.4,0-0.7-0.1-1.1-0.1c-0.4,0-1,0-1.8,0c-6.6,0-11.5,1.8-15,5.4
		c-3.4,3.6-5.1,8.8-5.1,15.6v40.6L77.5,569.5L77.5,569.5z M162,569.5V469.1h71.6v12.5h-58.1v30h53.7v11.7h-53.7v33.7h59.3v12.6
		L162,569.5L162,569.5z M293.7,532.5c0-9-1.8-15.9-5.5-20.5c-3.7-4.6-9.1-6.9-16.3-6.9c-6.9,0-12.3,2.5-16,7.5
		c-3.8,5-5.7,12.1-5.7,21.4c0,8.3,1.9,14.9,5.8,19.6c3.9,4.8,9.2,7.2,16,7.2c6.9,0,12.2-2.5,16-7.4
		C291.8,548.6,293.7,541.6,293.7,532.5L293.7,532.5z M305.1,469.1v100.4h-11.9v-9.2c-3.1,3.8-6.7,6.7-10.6,8.6
		c-4,1.9-8.3,2.9-13.1,2.9c-9.7,0-17.5-3.5-23.3-10.5c-5.8-7-8.7-16.3-8.7-28.1c0-12,2.9-21.5,8.7-28.5c5.8-7.1,13.6-10.6,23.3-10.6
		c5.1,0,9.6,0.9,13.5,2.8c3.9,1.9,7.3,4.7,10.2,8.5v-36.3L305.1,469.1L305.1,469.1z M332,496.5v44.8c0,7.2,1.1,12.2,3.4,15
		c2.3,2.8,6.1,4.2,11.4,4.2c7.1,0,12.5-2.1,16.1-6.2c3.6-4.2,5.4-10.3,5.4-18.4v-39.3h12.3v73h-11.7v-10.9c-2.5,4.2-5.8,7.4-9.9,9.5
		c-4,2.1-8.8,3.2-14.3,3.2c-5.1,0-9.5-0.9-13.3-2.6c-3.8-1.7-6.7-4.2-8.7-7.4c-1.1-1.8-2-3.9-2.5-6.2c-0.5-2.4-0.8-6.2-0.8-11.4
		v-47.3L332,496.5L332,496.5z M444.1,520.7c-0.4-5-2.2-8.9-5.4-11.6c-3.2-2.7-7.7-4.1-13.3-4.1c-6.6,0-11.8,2.4-15.4,7.2
		c-3.6,4.8-5.4,11.6-5.4,20.5c0,8.9,1.7,15.8,5.2,20.6c3.5,4.8,8.4,7.2,14.8,7.2c5.7,0,10.3-1.5,13.7-4.4c3.4-2.9,5.6-7.2,6.4-12.9
		h11.7c-0.6,9-3.8,15.9-9.5,21c-5.7,5-13.3,7.5-22.9,7.5c-10,0-17.9-3.4-23.6-10.3c-5.7-6.9-8.6-16.3-8.6-28.2
		c0-12.2,3-21.8,8.9-28.7c6-6.9,14.1-10.4,24.6-10.4c9.2,0,16.5,2.4,22.1,7.2c5.5,4.8,8.5,11.3,8.8,19.5L444.1,520.7L444.1,520.7z
		 M513.4,559.7c-3.8,4-7.9,7-12.2,9c-4.3,2-9,3-13.7,3c-7.5,0-13.3-1.9-17.5-5.8c-4.2-3.9-6.3-9.3-6.3-16.1c0-6.6,2.1-11.8,6.2-15.6
		c4.1-3.8,10.4-6.2,18.8-7.3c2.1-0.2,5-0.5,8.7-1c6.2-0.6,10.1-1.2,11.5-1.8c1.4-0.5,2.3-1.3,2.8-2.1c0.5-0.9,0.7-2.8,0.7-5.8
		c0-3.7-1.4-6.5-4.1-8.4c-2.7-1.9-6.8-2.8-12.3-2.8c-5.7,0-10,1.1-12.9,3.4c-2.9,2.3-4.3,5.6-4.3,10.1h-11.6v-0.5
		c0-7.4,2.6-13.2,7.8-17.5c5.2-4.3,12.3-6.4,21.4-6.4c9.8,0,17,1.8,21.6,5.5c4.6,3.7,6.9,9.4,6.9,17.1v36.5c0,3.1,0.3,5.2,1,6.1
		c0.7,0.9,1.9,1.4,3.7,1.4c0.4,0,0.8,0,1.3-0.1c0.5-0.1,1.1-0.2,1.9-0.3v9.5c-1.5,0.4-2.8,0.7-3.9,0.9c-1.1,0.2-2.2,0.2-3.2,0.2
		c-4.1,0-7.2-0.9-9.2-2.7c-2-1.8-3.1-4.5-3.1-8L513.4,559.7L513.4,559.7z M512.2,532.3c-3.3,1.8-8.9,3.2-16.8,4.2
		c-2.1,0.3-4.2,0.6-6.3,0.9c-4.5,0.7-7.7,2-9.6,4c-2,1.9-2.9,4.7-2.9,8.3c0,3.6,1.1,6.4,3.4,8.4c2.3,2,5.5,2.9,9.7,2.9
		c6.6,0,12-1.7,16.2-5c4.2-3.3,6.3-7.6,6.3-12.7L512.2,532.3L512.2,532.3z M556,551.1c0,3.3,0.5,5.4,1.4,6.5
		c0.9,1.1,2.6,1.6,5.2,1.6c0.7,0,1.6,0,2.6-0.1c1,0,2.4-0.1,4-0.3v10.4c-2,0.4-3.9,0.6-5.5,0.8c-1.6,0.2-3.1,0.3-4.3,0.3
		c-5.8,0-9.8-1.1-12.1-3.3c-2.3-2.2-3.5-6.2-3.5-11.9v-49h-10.9v-9.7h10.9v-20.4H556v20.4h13.2v9.7H556L556,551.1L556,551.1z
		 M579.7,483v-14H592v14H579.7z M579.7,569.5v-73H592v73H579.7z M615.5,532.9c0,9,1.9,16,5.8,20.8c3.9,4.8,9.4,7.2,16.7,7.2
		c7.2,0,12.7-2.4,16.5-7.2c3.8-4.8,5.7-11.7,5.7-20.8c0-9-1.9-15.9-5.7-20.7c-3.8-4.8-9.3-7.2-16.5-7.2c-7.3,0-12.8,2.4-16.7,7.2
		C617.4,516.9,615.5,523.8,615.5,532.9L615.5,532.9z M602.9,532.9c0-12.2,3.1-21.8,9.2-28.6c6.1-6.8,14.7-10.2,25.7-10.2
		c11.1,0,19.7,3.4,25.8,10.2c6.1,6.8,9.2,16.3,9.2,28.6c0,12.3-3.1,21.8-9.2,28.6c-6.1,6.8-14.7,10.2-25.7,10.2
		c-11.1,0-19.7-3.4-25.8-10.2C606,554.8,602.9,545.2,602.9,532.9L602.9,532.9z M732.5,569.5v-44.9c0-7.2-1.1-12.1-3.3-14.9
		c-2.2-2.8-6-4.1-11.4-4.1c-6.9,0-12.2,1.9-16,5.8c-3.8,3.9-5.7,9.4-5.7,16.5v41.6h-12.3v-73h11.7v10.6c2.8-4.2,6.2-7.4,10-9.4
		c3.9-2,8.3-3.1,13.4-3.1c5.5,0,10.1,0.8,13.9,2.5c3.8,1.7,6.7,4.1,8.7,7.5c1.1,1.8,2,3.8,2.5,6.2c0.5,2.4,0.8,6.2,0.8,11.4v47.3
		L732.5,569.5L732.5,569.5z M59.7,104.4c-1.1,2.2-2.1,3.5-2,5.1c0.2,1.7,1.9,2.9,2.8,4.6c0.8-2,2-3.5,1.9-5
		C62.2,107.6,60.1,105.5,59.7,104.4 M89,104.4c1.1,2.2,2.1,3.5,2,5.1c-0.2,1.7-1.9,2.9-2.8,4.6c-0.8-2-2-3.5-1.9-5
		C86.5,107.6,88.6,105.5,89,104.4 M42.8,103.1c1.1,0,2-0.9,2-2s-0.9-2-2-2c0,0,0,0,0,0c-1.1,0-2,0.9-2,2S41.7,103.1,42.8,103.1
		C42.8,103.1,42.8,103.1,42.8,103.1 M44.1,106c0-1.1-0.9-2-2-2c-1.1,0-2,0.9-2,2l0,0c0,1.1,0.9,2,2,2C43.2,108,44.1,107.1,44.1,106
		 M45.1,110.8c0-1.1-0.9-2-2-2c-1.1,0-2,0.9-2,2c0,0,0,0,0,0c0,1.1,0.9,2,2,2C44.2,112.8,45.1,111.9,45.1,110.8 M53.8,93.7
		c1.1,0,2-0.9,2-2c0-1.1-0.9-2-2-2c-1.1,0-2,0.9-2,2C51.8,92.8,52.7,93.7,53.8,93.7 M48.8,95.2c1.1,0,2-0.8,2.1-1.9
		c0-1.1-0.8-2-1.9-2.1c-0.1,0-0.1,0-0.2,0c-1.1,0.1-1.9,1-1.9,2.1C47,94.4,47.8,95.2,48.8,95.2 M45,98.6c1.1,0,2-0.9,2-2
		c0,0,0,0,0,0c0-1.1-0.9-2-2-2c-1.1,0-2,0.9-2,2l0,0C43,97.7,43.9,98.6,45,98.6 M58.9,94.2c1.1,0,2-0.9,2-2s-0.9-2-2-2c0,0,0,0,0,0
		c-1.1,0-2,0.9-2,2C57,93.3,57.9,94.2,58.9,94.2 M63.9,95.6c1.1,0,2-0.9,2-2c0-1.1-0.9-2-2-2c-1.1,0-2,0.9-2,2
		C61.9,94.7,62.8,95.6,63.9,95.6 M68.5,97.8c1.1,0,2-0.9,2-2s-0.9-2-2-2c0,0,0,0,0,0c-1.1,0-2,0.9-2,2
		C66.5,96.9,67.4,97.8,68.5,97.8 M103.8,101.2c0,1.1,0.9,2,2,2c1.1,0,2-0.9,2-2l0,0c0-1.1-0.9-2-2-2S103.8,100.1,103.8,101.2
		 M106.5,104c-1.1,0-2,0.9-2,2c0,1.1,0.9,2,2,2c0,0,0,0,0,0c1.1,0,2-0.9,2-2C108.5,104.9,107.6,104,106.5,104 M105.5,108.8
		c-1.1,0-2,0.9-2,2c0,1.1,0.9,2,2,2c0,0,0,0,0,0c1.1,0,2-0.9,2-2c0,0,0,0,0,0C107.5,109.7,106.6,108.8,105.5,108.8 M94.9,93.7
		c1.1,0,2-0.9,2-2c0-1.1-0.9-2-2-2c-1.1,0-2,0.9-2,2C92.9,92.8,93.8,93.7,94.9,93.7 M99.8,95.2c1,0.5,2.2,0.1,2.7-0.9
		c0.5-1,0.1-2.2-0.9-2.7c-1-0.5-2.2-0.1-2.7,0.9C98.4,93.5,98.8,94.7,99.8,95.2 M103.7,98.6c1.1,0,2-0.9,2-2c0-1.1-0.9-2-2-2
		c-1.1,0-2,0.9-2,2C101.7,97.7,102.6,98.6,103.7,98.6 M89.7,94.2c1.1,0,2-0.9,2-2c0-1.1-0.9-2-2-2c-1.1,0-2,0.9-2,2
		C87.7,93.3,88.6,94.2,89.7,94.2 M84.8,95.6c1.1,0,2-0.9,2-2c0-1.1-0.9-2-2-2c-1.1,0-2,0.9-2,2C82.8,94.7,83.7,95.6,84.8,95.6
		 M78.2,95.8c0.1,1.1,1,1.9,2.1,1.9c1-0.1,1.8-0.9,1.9-1.9c0-1.1-0.9-2-2-2C79.1,93.8,78.2,94.7,78.2,95.8 M70.9,106.5h2.2V98
		c-0.8-0.1-1.5-0.3-2.2-0.7V106.5L70.9,106.5z M77.7,97.3c-0.7,0.3-1.4,0.6-2.2,0.7v8.5h2.2V97.3z M73,88v-5c-2.5,0.5-4.4,2.5-4.9,5
		L73,88L73,88z M75.6,88h4.8c-0.4-2.5-2.3-4.5-4.8-5L75.6,88L75.6,88z M68.2,90.4c0.7,3.4,4.1,5.5,7.4,4.7c2.4-0.5,4.2-2.4,4.7-4.7
		L68.2,90.4L68.2,90.4z M77.7,82.1c-1.4-1.1-2.5-2.7-2.7-4.4c1.6,0.3,3.4,1.5,4.5,2.9v-6.8c-1.1,1.4-2.9,2.6-4.5,2.9
		c0.2-1.7,1.2-3.2,2.6-4.9H71c1.4,1.7,2.4,3.2,2.6,4.9c-1.6-0.3-3.4-1.5-4.5-2.9v6.8c1.1-1.4,2.9-2.6,4.5-2.9
		c-0.2,1.7-1.3,3.3-2.7,4.4H77.7L77.7,82.1z M85,218.2c-6.2-1.6-13.7-4.2-20.6-7.4v-0.1c0.2-1.4-0.3-3-1.4-4.2
		c-1.1-1.2-2.5-1.9-3.9-1.9c-0.6,0-1.3,0.1-1.9,0.4c-1-0.9-2-1.9-2.9-2.9c-2.6-3.1-4.7-6.7-6.1-10.6c-0.8-2.3-1.4-4.6-1.8-7.1
		c-0.3,2-2.6,4.7-6.5,4.7c0.1-0.4,0-1.4-0.3-1.5c-1,1.1-2.6,2.4-6.1,1.1c0.5,2.8,1.3,5.5,2.3,8.1c2,5.5,5.1,10.6,9,15
		c1.3,1.4,2.6,2.8,4,4c0,0.3,0,0.5,0,0.8c0,1.5,1.4,3.8,3.4,4.8c1.7,0.8,3.5,0.6,5.1-0.6c3,1.6,6.9,3.1,11,4.3c4.7,1.3,9.2,2,12.7,2
		c3,0,7.1-1.4,11-3.9c1.6-1,3.1-2.1,4.2-3.2c0.2-0.1,0.3-0.3,0.4-0.4C93.5,220.1,88.8,219.2,85,218.2 M62.2,208.9l-0.7-0.5
		c-1.2-0.9-2.2-0.9-3.3,0c-0.5,0.4-1,1-1.4,1.5l-0.7,0.8l0.5,0.4c1.3,1,1.5,2.1,1.1,2.8c-0.1,0.3-0.4,0.4-0.7,0.5
		c-0.6,0.2-1.5-0.1-2.4-0.6l-0.5-0.3l-0.3,0.5l-0.2,0.4c-0.1,0.2-0.2,0.3-0.3,0.5c-0.5,1-0.8,1.7-0.8,2.3c0,0.2,0,0.3,0.1,0.5
		c0.2,0.7,0.8,1,1.2,1.3L54,219c0.6,0.4,1.4,0.8,2,1.2c-1.1,0.6-2.3,0.7-3.4,0.1c-1.7-0.8-2.8-2.8-2.8-3.8c0-1.5,0.7-3.4,1.9-5.3
		l0.2-0.3l-0.2-0.3c-0.3-0.5-0.6-1.1-0.9-1.7c0.6,0.1,1.3,0.2,1.9,0.4l0.3,0.1l0.2-0.2c0.8-0.8,3.4-3.5,5.8-3.5
		c1.1,0,2.2,0.6,3.1,1.5c0.6,0.7,1,1.6,1.1,2.4C62.9,209.4,62.5,209.2,62.2,208.9 M66.2,220.7c-1.5,0-2.7-1.2-2.7-2.7
		c0-1.5,1.2-2.7,2.7-2.7c1.5,0,2.7,1.2,2.7,2.7C68.9,219.5,67.7,220.7,66.2,220.7 M77.9,224.4c-1.4,0-2.4-1.2-2.4-2.5
		c0-1.3,1.1-2.3,2.4-2.4c1.3,0,2.4,1.1,2.4,2.4C80.3,223.3,79.3,224.4,77.9,224.4 M81.1,236.7c-0.5,0-0.9,0.1-1.3,0.2v-7.5
		c-3.7-0.2-7.3-0.7-10.9-1.6v9.1c-0.4-0.1-0.9-0.2-1.3-0.2c-2.6,0-4.2,2.2-4.2,4.2c0,1.9,1.1,3.7,2.1,4.8c0.5-1.2,0.9-2.1,1.6-2.1
		c1.3,0,0.7,6.5,4.5,6.7c-0.1,0.3-0.2,0.7-0.2,1c0,1.6,1.3,3,3,3c1.6,0,3-1.3,3-3c0-0.3-0.1-0.7-0.2-1c3.8-0.2,3.2-6.7,4.5-6.7
		c0.6,0,1.1,0.9,1.6,2.1c1-1.1,2.1-2.9,2.1-4.8C85.4,238.9,83.8,236.7,81.1,236.7 M74.4,253c-0.9,0-1.7-0.7-1.7-1.7
		c0-0.9,0.7-1.7,1.7-1.7c0.9,0,1.7,0.7,1.7,1.7C76,252.2,75.3,253,74.4,253 M83.3,243.5c-0.4-0.8-1.1-1.3-1.7-1.3
		c-2.6,0-1.6,6.7-4.6,6.7c-1.3,0-2-0.9-2-1.8c0-0.9,0.7-1.2,0.7-2c0-0.8-0.6-1-1.3-1c-0.6,0-1.3,0.3-1.3,1c0,0.8,0.7,1,0.7,2
		c0,1-0.7,1.8-2,1.8c-3,0-2-6.7-4.6-6.7c-0.6,0-1.2,0.5-1.7,1.3c-0.5-1-0.8-1.9-0.8-2.6c0-1.2,0.9-2.9,2.9-2.9
		c3.4,0,2.6,4.6,4.2,4.6c0.7,0,1.3-0.4,1.3-1.1c0-1.3-2.4-2.6-2.4-4.5c0-1.9,1.7-3.5,3.6-5c1.9,1.5,3.6,3.1,3.6,5
		c0,1.9-2.4,3.1-2.4,4.5c0,0.7,0.5,1.1,1.2,1.1c1.6,0,0.8-4.6,4.2-4.6c2,0,2.9,1.7,2.9,2.9C84.1,241.6,83.8,242.6,83.3,243.5"/>
	<path d="M168.8,245.6c-0.1-0.4-0.6-0.6-1-0.5c-8.7,2.5-19.6-4.7-30.1-11.7c-8.8-5.9-17.2-11.4-24.3-11.4c-2.6,0-5,0.6-7,1.7
		c-2.5,1.4-4.4,3.5-5.5,6.4c-1.2,2.9-2.5,4.9-3.5,6.5c-1.2,1.9-2.1,3.3-2.1,5c0,1.4,0.6,2.7,1.8,3.9c1,1,2.5,2,4.6,3.1
		c0.5,0.2,0.9,0.4,1.3,0.7c1.7,0.8,2.8,1.4,3,2.4c-3.5,1.5-7.9,2.8-13,3.7c-5.7,1-12,1.5-18.7,1.5c-6.6,0-12.9-0.5-18.6-1.5
		c-5.1-0.9-9.6-2.1-13-3.7c0.1-1.5,1.2-2,3.1-2.9c0.5-0.2,0.9-0.4,1.4-0.7c1.7-0.9,3.4-1.8,4.5-2.8c1.2-1.1,1.8-2.3,1.8-3.7
		c0-1.7-0.9-3.1-2.1-5c-1-1.6-2.3-3.6-3.5-6.5c-1.2-2.9-3.1-5.1-5.6-6.4c-2-1.1-4.4-1.7-7-1.7c-7.1,0-15.5,5.5-24.3,11.4
		c-10.5,7-21.3,14.2-30.1,11.7c-0.4-0.2-0.9,0.1-1,0.5c-0.2,0.4,0.1,0.9,0.5,1l0,0c2.7,1.2,5,3,7.3,4.8c3.2,2.5,6.1,4.8,9.4,4.8
		c3.1,0,6.4-1,10.5-3.1c3.5-1.8,7.2-4.3,10.7-6.7c6.9-4.7,14-9.6,20.8-10.1c-0.7,0.7-1.4,1.3-2,1.9c-2,1.8-3.7,3.3-3.7,6.5
		c0,2.5,0.8,4.2,2,6.7c0.3,0.7,0.7,1.5,1.1,2.4c0.8,1.7,1.1,3,1.5,4.9c0.2,0.8,0.4,1.7,0.7,2.8c0.4,1.6,1.2,4.6,6.2,7.1
		c5.8,2.9,15.7,4.4,29.5,4.4c13.8,0,23.7-1.5,29.5-4.4c5-2.5,5.8-5.5,6.2-7.1c0.3-1.1,0.5-2,0.7-2.8c0.5-1.8,0.8-3.2,1.5-4.9
		c0.6-1.2,1.1-2.2,1.6-3.1c1-1.9,1.9-3.5,1.9-5.7c0-3.1-1.8-4.8-3.9-6.7c-0.7-0.6-1.4-1.3-2.1-2c6.8,0.5,13.9,5.4,20.8,10.1
		c3.5,2.4,7.2,4.9,10.7,6.7c4.1,2.1,7.4,3.1,10.5,3.1c3.3,0,6.2-2.3,9.4-4.8c2.3-1.7,4.6-3.6,7.3-4.8
		C168.7,246.5,168.9,246,168.8,245.6 M116.3,175.7c-1-0.7-2.5-2.2-3.4-3.9c-1-2.1-5.4-10.7-6-11.8c-0.6-0.9-0.9-1.8-0.9-2.5
		c0-0.9,0.4-1.6,0.9-2.3c0.3-0.4,1.3-1.4,1.6-1.9c0.3-0.4,0.5-0.8,0.8-1c-1.6-2.7-3.2-4.8-5.3-7.1c-2.5-2.9-5.4-5.3-8.5-7.3
		c1.7-1.1,3.3-2.6,3.3-5.2c0-1.5-0.6-2.7-1.7-3.7c1.7-5.6,4.9-12.3,7.6-15.3l-5.6-2.4c1.5,2.2,1.6,4.8,1.2,6.3
		c-1.5-1-2.7-2.4-3.1-4.2c-0.3,1.7-1.2,4.5-2.1,6.1c1.6-0.8,2.9-1.1,4.6-0.4c-0.9,1.3-3.4,3.2-7.1,2.4c-2-0.5-4-1.5-3.9-3.1
		c0-0.9,0.7-2,2-1.9c1.2,0.1,1.3,2,0.9,2.8c1.6-0.9,3.3-5.6,0.8-6.3c-2-0.5-3.8,2.2-4.4,4.2c-0.4-2.5-1.4-4.9-3.4-4.8
		c-2.6,0.2-1.7,4.9-0.8,6.2c0.2-1.7,1.1-2.6,1.8-2.5c0.7,0,1.6,0.5,1.4,2c-0.2,1.5-2.3,2.5-4.8,2.5c-2.4,0-6.5-0.7-6.9-5.3
		c1.5,0.3,4,1.5,5,3c-0.3-2.5-0.3-5.1,0-7.6c-1.3,1.8-3.4,2.7-4.9,3c0.4-2,2.1-4,4.1-5.3H69.3c2,1.2,3.6,3.3,4.1,5.3
		c-1.5-0.3-3.6-1.2-4.8-3c0.3,2.9,0.3,4.8,0,7.6c1-1.5,3.4-2.7,4.9-3c-0.4,4.6-4.6,5.3-6.9,5.3c-2.5,0-4.6-0.9-4.8-2.5
		c-0.2-1.5,0.8-2,1.5-2c0.8-0.1,1.7,0.8,1.8,2.5c0.9-1.2,1.7-6-0.8-6.2c-2-0.1-3,2.3-3.4,4.8c-0.7-2.1-2.5-4.8-4.4-4.2
		c-2.5,0.7-0.8,5.4,0.8,6.3c-0.4-0.8-0.3-2.7,0.9-2.8c1.3-0.1,1.9,1,2,1.9c0.1,1.5-1.9,2.6-3.9,3.1c-3.7,0.9-6.1-1.1-7.1-2.3
		c1.7-0.7,3-0.4,4.6,0.4c-0.9-1.6-1.8-4.4-2.1-6.1c-0.4,1.9-1.7,3.3-3.2,4.3c-0.4-2.2,0-4.5,1.2-6.4l-5.6,2.4
		c2.7,3,5.8,9.7,7.6,15.3c-1.1,1-1.7,2.2-1.7,3.7c0,2.6,1.7,4.2,3.3,5.2c-3.1,2.1-6,4.5-8.5,7.3c-3.9,4.4-6.9,9.4-9,14.9
		c0.8,0.8,4.1,4.5,4.9,5.5c1.4,1.8,2.2,3.5,2.3,4.9c0.1,2.5,0.6,3.5,2,5.3c0.4,0.5,1,2.5,1.1,3.8h27.9v30.3
		c-1.1,0.1-2.3,0.4-3.2,1.5c3.2,1.3,6.3,2.5,9.4,3.4c0.3-2,0.7-3.2,1.7-4.4c0,0-4-0.4-6.2-0.5v-30.3h27.2c-0.1,4.1-0.8,8.2-2.2,12
		c-1.4,3.9-3.5,7.5-6.1,10.6c-2.5,3-5.6,5.4-9,7.1c-0.5,0.3-0.5,0.7-1.1,0.9c-0.5,0.5-1,1.4-1.3,2.5c-0.3,0.9-0.5,1.5-0.6,2.8
		c1.3,0.4,2,0.6,3.2,0.9c9.6,2.4,11.9,1.7,12.5,1.3l0,0c2.2-1.7,4.2-3.6,6-5.6c3.9-4.4,6.9-9.5,9-15c2.2-5.8,3.3-12,3.3-18.4
		C116.3,177.2,116.3,176.9,116.3,175.7L116.3,175.7z M73.9,177.8H46c0.1-4.3,0.8-8.5,2.2-12.5c1.4-3.9,3.5-7.5,6.1-10.6
		c2.5-3,5.6-5.4,9-7.1c3.3-1.6,6.9-2.5,10.5-2.6V177.8z M74.4,131.3c-9.3,0-15.7,2.7-19.4,5.2c-2.2-1.3-3.1-2.5-3.1-4
		c0-5.3,14.9-5.8,22.5-5.8h0c7.6,0,22.5,0.5,22.5,5.8c0,1.5-0.9,2.7-3.1,4C90.1,134.1,83.7,131.3,74.4,131.3L74.4,131.3z
		 M75.5,177.8V145c3.4,0.2,6.7,1,9.9,2.5c3.4,1.7,6.4,4.1,9,7.1c2.6,3.1,4.7,6.7,6.1,10.6c1.4,4,2.2,8.2,2.2,12.5L75.5,177.8
		L75.5,177.8z"/>
	<path d="M98.5,172.4c0.5,0.3,0.3,1.1-0.3,1c-0.6-5-2.4-9.7-5.2-13.8c0,0,0.1-0.1,0.1-0.1c0.6-0.2,1.1-0.8,1.2-1.4
		c-0.7-0.1-1.4,0.2-1.8,0.8c-0.2-0.3-0.4-0.5-0.6-0.8c-1.7-2.1-3.7-4-5.9-5.5c-2-1.4-4.2-2.4-6.6-3c0-0.5,0.7-0.6,1-0.1
		c0.1-0.9-0.7-1.3-1.1-1.1c-0.2,0.1-0.4,0.3-0.5,0.7c-0.3-0.4-0.8-0.6-1.2-0.7c0,0.6,0.1,1,0.4,1.3c-0.4,0-0.6,0.2-0.7,0.4
		c-0.2,0.4,0.1,1.2,0.9,1.3c-0.4-0.3-0.2-1,0.3-1v10.7c-0.6-0.2-1.3,0-1.8,0.5c0.6,0.6,1.2,0.6,1.8,0.5v11.6c-0.6,0.1-0.7-0.7-0.3-1
		c-0.9,0-1.2,0.8-1,1.2c0.1,0.3,0.4,0.5,0.9,0.4c-0.3,0.3-0.5,0.8-0.5,1.2c0.4,0,0.9-0.2,1.2-0.5c-0.1,0.5,0.2,0.8,0.4,0.9
		c0.4,0.2,1.2-0.2,1.2-1c-0.3,0.4-1,0.3-1-0.2h8c-0.2,0.6,0,1.3,0.5,1.8c0.5-0.6,0.6-1.2,0.5-1.8h9c0,0.6-0.7,0.7-1,0.3
		c0,0.9,0.8,1.2,1.2,1c0.3-0.1,0.5-0.4,0.4-0.9c0.3,0.3,0.8,0.4,1.2,0.4c0-0.5-0.2-0.9-0.5-1.2c0.5,0,0.8-0.2,0.9-0.4
		C99.7,173.2,99.3,172.4,98.5,172.4 M90.7,158.3c-0.2,0.2-0.4,0.5-0.3,0.8c0.1,0.3,0.3,0.5,0.8,0.5c-0.3,0.3-0.6,0.7-0.6,1.1
		c0.5,0.1,1-0.1,1.3-0.3c-0.1,0.5,0.1,0.8,0.3,0.9c0.2,0.1,0.5,0.1,0.7,0c2.1,3.4,3.5,7.1,4.1,11.1c-0.3-0.2-0.7-0.3-1-0.3
		c0,0.5,0.2,0.9,0.5,1.3h-6.8c0-0.4-0.2-0.8-0.5-0.9c-0.3-0.1-0.6-0.1-0.9,0.3c0-0.4-0.2-0.9-0.5-1.2c-0.3,0.3-0.5,0.7-0.5,1.2
		c-0.3-0.4-0.6-0.4-0.9-0.3c-0.3,0.1-0.5,0.5-0.4,0.9h-5.8c0.3-0.3,0.4-0.7,0.4-1.2c-0.4,0-0.8,0.1-1.2,0.4v-9.4
		c0.4,0.1,0.8-0.2,0.9-0.4c0.1-0.3,0.1-0.6-0.3-0.9c0.5,0,0.9-0.2,1.2-0.5c-0.3-0.3-0.7-0.5-1.2-0.5c0.4-0.3,0.4-0.6,0.3-0.9
		c-0.1-0.3-0.5-0.5-0.9-0.4v-8c0.2,0.2,0.6,0.4,1,0.4c0-0.4-0.1-0.8-0.3-1.1c1.8,0.6,3.6,1.5,5.3,2.6
		C87.3,154.7,89.1,156.4,90.7,158.3"/>
	<path d="M93.7,169.5c0.3-0.1,0.6-0.4,0.8-0.7c-0.4,0.1-0.7-0.1-0.8-0.1c0.3-0.2,0.6,0,0.3-0.5c-0.3-0.5-0.5-0.5-0.9-0.2
		c-0.3,0.3-2.5-0.1-2.5-1.7c0.2,0.3,0.4,0.5,0.7,0.6c0.1,0,0.2,0.1,0.3,0.1c0.1,0,0.2,0,0.3,0c0.2,0.1,0.4,0.1,0.6,0.1l0.1,0v-0.1
		c0.4-0.1,0.8-0.4,0.8-0.9c0.1-0.9-0.8-1.3-1.7-2.1c-0.3-0.3-0.6-0.5-0.9-0.8c-0.3-0.6-0.1-1.2-0.9-2.4c-0.1-0.4-0.1-0.7-0.3-1
		c-0.6,1.1-0.4,2.5,0.5,3.4c0.9,1,2.8,1.9,2.8,2.8c0,0.2-0.2,0.4-0.5,0.4c-0.1,0-0.2,0-0.3,0c-0.1,0-0.1,0-0.2-0.1
		c-0.1,0-0.3-0.1-0.4-0.2c-0.2-0.1-0.5-0.3-0.7-0.5c-0.8-0.8-1.5-1.8-2-2.5c-0.9-1.1-0.5-2.3-0.3-3.2c0.6-0.9-0.4-2.7-1-3.1
		c0,0,0.1-0.4,0-0.9c-0.1,0.1-0.4,0.1-0.6,0.1c-0.2-0.3-0.2-0.4-0.5-0.4c-0.4-0.1-0.4-0.3-0.4-0.4c-0.2,0.2-0.3,0.4-0.5,0.4
		c-0.3,0-0.5,0-0.6,0.1c-0.2,0.2-0.3,0.3-0.7,0.2c-0.4,0-0.4,0.2-0.3,0.5c0,0.2,0,0.4,0.3,0.5c0,0,0.1,0,0.1,0l0.3,0.3l0.2-0.4
		c0.2-0.1,0.6-0.2,0.7,0.2c0.1,0.2,0.1,0.3-0.2,0.3c-0.3,0-0.5,0-0.8,0.1c-0.2,0-0.2,0.3-0.2,0.4c0,0.2,0.2,0.3,0.7,0.2
		c0.4-0.1,1.2-0.2,1.2,0.2c0,1-1.1,0.9-1.3,2.1c-0.3-0.2-0.5-0.4-0.7-0.6c-0.2-0.4-0.5-0.7-0.8-1c-0.2-0.3-0.5-0.5-0.8-0.7
		c-0.4-0.2-0.4-0.4-0.4-0.8c0-0.3,0.1-0.7,0.1-1c0,0-0.1-0.2-0.1-0.3c-0.1-0.2-0.4-0.4-0.5-0.3c0.1,0.1,0.2,0.1,0.2,0.3
		c-0.1,0.1-0.1,0.2-0.2,0.2c-0.1,0.1-0.1,0.2,0,0.3c0,0,0,0,0,0.1c0,0.1,0,0.1,0,0.2c0,0.1,0,0,0,0c-0.1-0.2-0.2-0.6-0.4-0.6
		c0,0-0.1,0-0.2,0c0,0,0,0,0,0c0-0.2-0.3-0.4-0.6-0.2c0.1,0,0.2,0,0.2,0.1c0,0.1,0,0.2-0.1,0.3c0,0.2,0.2,0.4,0.4,0.4
		c0,0,0.1,0,0.1,0c0,0,0,0.1,0,0.1c0,0,0,0,0,0c-0.4-0.2-0.6,0-0.6,0.2c0,0,0,0.1,0,0.2c-0.2,0.1-0.2,0.3,0.1,0.5
		c0-0.1,0-0.2,0.1-0.3c0,0,0,0,0.1,0c0,0.1,0.1,0.1,0.1,0.1c0,0,0.1,0,0.2-0.1c0,0,0.1,0,0.1,0c0,0,0.1,0.1,0.1,0.1c0,0,0,0,0,0.1
		c-0.3,0.3-0.2,0.5,0.1,0.6c-0.2,0.3-0.7,0.2-0.6-0.3c-0.4,0.6,0.2,1,0.8,0.8c0,0.2,0,0.6,0.1,0.7c0,0,0-0.1,0.1-0.1c0,0,0,0,0,0.1
		c0,0.1,0.1,0.3,0.3,0.3c0-0.1,0-0.2,0.1-0.2c0.1,0.1,0.2,0.3,0.3,0.4c0.2,0.5,0.8,1.6,1.9,2.1c-0.6,0.3-1,0.8-1.4,1.3
		c-0.3,0.3-0.8,0.7-1.1,0.5c-0.1-0.1-0.2-0.2-0.3-0.3c-0.1-0.1-0.3-0.1-0.4-0.1c-0.1,0-0.1,0-0.2,0.1c-0.2-0.1-0.5,0-0.6,0.2
		c0.1,0,0.2-0.1,0.4,0.1c0,0.1,0,0.2,0,0.2c0,0.1,0.1,0.3,0.7,0.3c0,0,0.1,0,0.1,0.1c-0.1,0.1-0.2,0.1-0.3,0.1
		c-0.3-0.1-0.4-0.3-0.6,0c0,0.1-0.1,0.1-0.1,0.2c0,0,0,0-0.1,0c-0.2,0.1-0.5,0.5-0.2,0.7c0-0.1,0-0.3,0.2-0.4c0,0.1,0.1,0.1,0.1,0.1
		c0.2,0.3,0.4,0.4,0.8-0.2c0-0.1,0.1,0,0,0c0,0.3-0.3,0.7,0.1,0.7c0,0,0.1,0,0.2,0v0.1c0.1,0.3,0.5,0.4,0.7,0.3
		c-0.1-0.1-0.3-0.1-0.4-0.4c0.1,0,0.2,0,0.2,0c0.2-0.2,0-0.5,0.1-0.6c0-0.1,0.1,0,0.1,0c0.1,0.1,0.3,0.4,0.6,0.2
		c0.1-0.1,0.2-0.2,0.2-0.4c0.4-0.2,0.8-0.3,1.1-0.2c-0.1-0.2,0.2-0.5,0.6-0.6c0.4-0.1,0.6,0,0.8,0.1c0.1-0.3,0.2-0.5,0.4-0.7
		c-0.1,1.7,2.2,1.7,2.8,2.7c-0.7-0.3-1.5-0.5-1.9-0.4c-0.6,0.1-1.5,0.6-1.7,1.3c-0.1,0.5,0.4,1.4,1,1.8c-0.7,0.1-0.9-0.1-1.5,0.1
		c0,0,0,0-0.1,0c-0.5,0.1-0.6-0.9-1.2-0.6c-0.1,0-0.1,0.1-0.2,0.1h0c-0.2,0-0.6,0.3-0.5,0.5c0.1-0.1,0.2-0.2,0.4-0.2
		c0,0.1,0,0.1,0,0.1c0,0.1,0,0.2,0.2,0.2c0.1,0,0.2-0.1,0.2-0.1c0,0,0.1,0,0.1,0.1c0,0.2-0.8-0.1-0.6,0.5c0,0,0.1,0.1,0.1,0.2
		c0,0.2,0.1,0.4,0.5,0.3c-0.1,0-0.2-0.1-0.2-0.2l0.1,0c0,0,0.1,0,0.1-0.1c0,0,0,0,0,0c0,0,0.1,0,0.1,0.1c0,0,0,0.1,0,0.1
		c0,0,0,0.2,0.1,0.2c0,0.2,0.3,0.5,0.7,0.2c-0.1,0-0.3-0.1-0.3-0.2c0.1,0,0.1,0,0.2-0.1c0,0,0.1-0.1,0.1-0.2c0-0.1,0-0.1,0.1-0.1
		c0,0,0.1,0,0.2,0c0.1,0,0.1,0,0.1,0.1c0.1,0.1,0.3,0.3,0.5,0.2c0.1,0,0.2-0.1,0.2-0.2c0.1,0.1,0.2,0.1,0.3,0.2
		c-0.1-0.2,0.1-0.4,0.6-0.1l0.4-0.3c0,0,0.5,0.2,0.7,0c0.3-0.3,0.1-0.3,0.1-0.6c-0.2-0.5-0.4-0.5-0.5-1c-0.2-0.9,1-1.3,1.7-1.2
		c0.1,0.5,0.9,2,2.1,2.4c0.8,0.3,1.1-0.6,1.4-0.5c0.1,0,0.1,0.1,0.1,0.2c0,0.4,0,0.7-0.1,0.9c-0.1,0.2-0.5,0-0.8,0
		c-0.1,0-0.2,0-0.3,0.1c-0.2,0-0.5,0.3-0.5,0.5c0.1-0.1,0.2-0.2,0.4-0.2l0,0.1c0,0.3,0.4,0.4,0.6,0.2c0,0,0.1,0,0.1,0
		c-0.2,0.1-0.5,0.5-0.2,0.6c0,0,0.1,0.1,0.2,0.1c0,0.2,0.1,0.4,0.3,0.4c-0.1-0.1-0.1-0.2,0-0.4c0.1,0,0.2,0,0.2,0
		c0.2,0,0.1-0.4,0.4-0.5c0,0,0.1,0,0,0c-0.1,0.2-0.1,0.5,0.1,0.6c0,0,0.1,0,0.2,0c0.1,0.2,0.3,0.3,0.6,0.2c-0.1,0-0.2-0.1-0.3-0.2
		c0.1-0.1,0.1-0.2,0.2-0.2c0.2-0.5-0.3-0.5-0.3-0.7c0-0.3,0.5-0.1,0.5-0.6c0,0,0-0.1,0-0.1c0.2-0.1,0.5-0.3,0.5-0.5
		C94.1,169.6,93.9,169.6,93.7,169.5L93.7,169.5L93.7,169.5z M70.7,184.9l-0.5,0l0-0.4c0.1-1.6-0.9-2.8-2.7-2.8c-1.6,0-4.6,2-8.8,2
		c-1.8,0-3.9-0.9-5.3-1.7l-0.5,1.3c0,0,0-0.1,0-0.1c0-0.6-0.5-1-1-1c-0.6,0-1.1,0.5-1,1.1c0,0.6,0.5,1.1,1.1,1
		c0.3,0,0.6-0.1,0.8-0.4l-0.5,1.3c0.2,0.1,0.4,0.2,0.6,0.2c-0.6,6.4,4.1,14.6,12.5,17.1c1.2-0.3,2.5-0.1,2.5,1.2
		c0,0.8-0.4,1.2-1.2,1.2c-0.5,0-0.8-0.3-0.8-0.6c0-0.6,1-0.2,1.1-0.6c0.1-0.5-0.2-0.7-0.8-0.7c-0.6,0-1.5,0.4-1.5,1.4
		c0,1.2,0.9,1.8,1.9,1.8c0.9,0,2.9-0.5,2.6-2.8c0.5,0,1-0.1,1.1-0.5l0.1-1.3l-0.5-0.1l0.4-14.7l0.3,0c0.5,0,1-0.2,1-0.8
		C71.6,185.2,71.2,184.9,70.7,184.9 M55.6,186l10.2,14.7C60.3,198.6,54.9,193.7,55.6,186 M66.1,199.3l-9.3-13.4c0.3,0,0.6,0,0.9,0
		c0.5,0,1,0,1.4-0.1l7.4,10.7C66.3,197.6,66.2,198.5,66.1,199.3 M66.7,195.1l-6.6-9.4c0.7-0.2,1.4-0.4,2.1-0.6l4.9,7L66.7,195.1
		 M68.3,184.7l-0.4,0c-0.4,0-1,0.2-1,0.8c0,0.6,0.4,0.9,0.9,0.9l0.3,0l-0.1,0.4c-0.1,0.8-0.3,2.2-0.6,3.8l-4.2-6
		c1.9-0.8,3.5-1.6,4.4-1.6C68.3,183,68.5,183.3,68.3,184.7 M68.9,155.2c2,0,3-0.6,3-1.3c0-2.2-5.5-0.8-5.5-2.2
		c0-0.2,0.2-0.4,0.4-0.6h0.1c2.8-0.3,2.8-2.1,4.8-2.5c-2.4-0.3-2.7,1.5-3.7,1.6c0.5-0.3,0.7-0.9,0.7-1.1c-0.5,0.6-1.5,0.7-2.1,1.4
		c-0.1,0.1-0.1,0.3-0.1,0.4c-0.4,0.2-0.6,0.5-0.6,0.8c0,2.1,5.5,0.7,5.5,2.2c0,0.5-1,0.9-2.5,0.9c-1.1,0-2-0.8-4.1-0.3
		c0-0.3,0.7-1,0.4-1.4c0.2-0.1,0.4-0.2,0.4-0.4c-0.1-0.1-0.3-0.2-0.4-0.2c0.1-0.1,0-0.2-0.1-0.3c0,0-0.1-0.3-0.1-0.3
		c-0.1-0.1-0.2-0.2-0.5-0.3c-0.2-0.1-0.4-0.1-0.5-0.1c-0.1,0-0.3,0-0.3,0c-0.1,0-0.3,0-0.3,0.1c-0.1-0.1-0.2-0.2-0.4-0.2
		c-0.1,0.2-0.1,0.4-0.1,0.6c-0.2,0-0.4,0.5-0.6,0.5c0.1,0.1,0.1,0.2,0.2,0.2c-0.2,0.3-0.2,0.6-0.4,0.7c0,0.1,0.1,0.1,0.1,0.2
		c-0.2,0.4-0.3,1-0.3,1.3c-0.1-0.1-0.3-0.3-0.5-0.4c-0.3-0.2-0.3-0.3-0.2-0.7c0-0.3,0.2-0.5,0.2-0.8c0,0,0-0.2,0-0.3
		c0-0.2-0.3-0.3-0.4-0.3c0.1,0.1,0.2,0.1,0.1,0.3c-0.1,0.1-0.1,0.1-0.2,0.1c-0.1,0.1-0.1,0.2,0,0.3c0,0,0,0,0,0.1c0,0,0,0.1,0,0.1
		c0,0.1,0,0,0,0c0-0.2-0.1-0.5-0.3-0.5c0,0-0.1,0-0.2,0c0,0,0,0,0,0c0-0.2-0.2-0.4-0.5-0.1c0.1,0,0.2,0,0.2,0.1
		c-0.1,0.1-0.1,0.2-0.1,0.2c0,0.2,0.1,0.3,0.4,0.3c0.1,0,0.1,0,0.1,0c0,0,0,0.1,0,0.1c0,0,0,0,0,0c-0.4-0.2-0.6,0-0.6,0.1
		c0,0,0,0.1,0,0.2c-0.1,0.1-0.2,0.3,0,0.4c0-0.1,0-0.2,0.1-0.2c0,0,0,0,0.1,0c0,0,0.1,0.1,0.1,0.1c0,0,0.1,0,0.3-0.1
		c0,0,0.1,0,0.1,0c0,0,0.1,0,0.1,0.1c0,0,0,0,0,0.1c-0.3,0.2-0.3,0.5,0,0.5c0,0,0.1,0,0,0.1c-0.1,0.5-0.7,0.3-0.6-0.1
		c-0.4,0.5,0.1,0.9,0.7,0.6c0,0,0.1,0,0.1,0c0,0.1,0.1,0.2,0.1,0.2c0,0,0-0.1,0.1-0.1c0,0,0,0,0,0.1c0,0.1,0,0.3,0.2,0.3
		c0-0.1,0-0.2,0.1-0.2c0.1,0,0.2,0.4,0.5,0.7c-0.4,0.2-0.8,0.3-1.2,0.4c-0.1,0-0.8-0.1-1,0c-0.3,0.2-1.1,0.5-1.3,0.1
		c-0.1-0.1,0-0.2-0.1-0.4c-0.1-0.1-0.2-0.2-0.2-0.2c0,0-0.1,0-0.2,0c-0.1-0.1-0.4-0.2-0.5-0.1c0.1,0,0.2,0,0.3,0.2
		c0,0.1-0.1,0.1-0.1,0.2c-0.1,0.1,0,0.3,0.5,0.4c0,0,0.1,0.1,0,0.1c-0.1,0-0.2,0-0.3,0c-0.2-0.2-0.2-0.4-0.4-0.2
		c-0.1,0-0.1,0-0.2,0.1c0,0,0,0-0.1,0c-0.2,0-0.6,0.2-0.4,0.5c0-0.1,0.1-0.2,0.3-0.2c0,0.1,0,0.1,0.1,0.2c0,0.3,0.2,0.4,0.7,0.1
		c0.1,0,0.1,0,0,0c-0.1,0.2-0.5,0.4-0.2,0.6c0,0,0.1,0,0.1,0.1c0,0,0,0,0,0c-0.1,0.3,0.3,0.5,0.4,0.5c-0.1-0.1-0.2-0.3-0.2-0.4
		l0.2,0c0.2-0.1,0.1-0.4,0.3-0.5c0,0,0.1,0,0.1,0c0,0.1,0.1,0.4,0.4,0.4c0.3,0,0.4-0.3,0.4-0.4c0,0,0,0,0,0c0.1,0.1,0.2,0.2,0.1,0.3
		c0.1,0,0.2-0.1,0.2-0.2c0.1,0.1,0.1,0.3-0.1,0.5c0.1,0,0.4-0.2,0.5-0.5c0,0,0.1,0.1,0.1,0.2c0,0,0,0,0,0c0.1,0,0.3,0.1,0.6,0
		c0,0,0,0,0,0c0,0.1,0,0.2,0,0.3c0,0,0.1-0.1,0.1-0.1c0.1,0,0,0.3,0.2,0.5c0.1-0.7,0.5-0.5,0.9-0.8c0.1,0,0.1,0,0,0
		c0,0.1-0.1,0.2-0.2,0.2c0.2,0,0.6-0.2,0.6-0.4c0-0.1,0.1-0.1,0.3-0.2c0.2,0,0.4,0,0.5-0.2c0,0.1,0.1,0.3,0,0.4c0.5,0,1-0.5,1.2-0.6
		c1-0.2-0.6-1,1.5-0.8c0.2,0,0.4-0.1,0.6-0.2c-0.2,0.3-0.2,1,0.2,1c0.2,0,0.4,0.1,0.5,0.2c0,0,0,0,0,0.1c-0.2,0-0.3,0.1-0.5,0.1
		c-0.5,0.3-0.5-0.8-1.1-0.6c0,0-0.1,0.1-0.1,0.1c-0.2,0-0.5,0.3-0.5,0.5c0.1-0.1,0.2-0.2,0.3-0.2v0.1c0,0.1,0,0.2,0.2,0.2
		c0.1,0,0.1,0,0.2,0c0,0,0.1,0,0.1,0c0,0.2-0.6-0.1-0.5,0.4c0,0,0.1,0.1,0.1,0.2c0,0.2,0.1,0.3,0.4,0.2c0,0-0.2-0.1-0.1-0.2
		c0.1,0,0.1,0,0.1,0c0,0,0,0,0.1-0.1c0,0,0,0,0,0c0,0,0.1,0,0.1,0.1c0,0-0.1,0.1-0.1,0.1c0,0,0,0.2,0.1,0.2c0,0.2,0.3,0.4,0.6,0.2
		c-0.1,0-0.3,0-0.3-0.1c0,0,0.1,0,0.1-0.1c0.1,0,0.1-0.1,0.1-0.2c0,0,0,0,0.1,0c0,0,0.1,0,0.1,0c0.1,0,0.1,0,0.1,0
		c0,0.1,0.2,0.2,0.4,0.2c0.4-0.1,0.1-0.4,0.3-0.5c0.1,0,0.1,0,0.2,0c0.3,0.1,0.7,0.1,0.8-0.1c0.1-0.1,0-0.6-0.3-0.8
		c-0.2-0.1,0-0.3-0.2-0.6c0.3,0.1,0.6,0.3,1.1,0.3c0.8,0,0-0.1,0.4-0.3c0.4-0.2,0.8-0.1,0.9-0.1c0.1,0,0.2,0.1,0.2,0.2
		c-0.1,0.4,0,0.4,0,0.6c-0.1,0.2-0.4,0-0.6,0c-0.1,0-0.2,0.1-0.2,0.1c-0.2,0-0.4,0.2-0.4,0.4c0.1-0.1,0.2-0.1,0.4-0.2v0.1
		c0,0.3,0.3,0.4,0.5,0.2c0,0,0.1,0,0.1,0c-0.2,0.1-0.4,0.4-0.2,0.5c0,0,0.1,0,0.1,0.1c0,0.2,0.1,0.3,0.2,0.4c0-0.1-0.1-0.1,0-0.3
		c0.1,0,0.1,0,0.1,0c0.2,0,0.1-0.3,0.3-0.4c0,0,0,0,0,0c-0.1,0.2-0.1,0.4,0.1,0.5c0,0,0.1,0,0.1,0c0.1,0.2,0.2,0.3,0.5,0.1
		c0,0-0.2-0.1-0.2-0.2c0-0.1,0.1-0.1,0.1-0.2c0.1-0.4-0.2-0.4-0.2-0.6c0-0.2,0.4-0.1,0.4-0.5c0-0.1,0-0.2-0.2-0.3c0,0,0,0,0,0h0
		c0.1,0,0.2,0,0.3-0.1c-0.3,0-0.2-0.2-0.3-0.4c0,0,0,0,0-0.1c0.1-0.1,0.2-0.2,0.1-0.4c-0.1,0.1-0.4,0.3-0.5,0c0,0,0-0.2-0.3-0.2
		C70.2,155.7,69.9,155.4,68.9,155.2C68.9,155.3,68.9,155.3,68.9,155.2 M62.9,153C62.9,153,62.9,153,62.9,153
		C62.9,153,62.9,153,62.9,153 M64.3,152.7c0.2,0.1,0.4,0.2,0.6,0.3c-0.3,0.1-0.2,0.2-0.4,0.2C64.4,153.1,64.3,152.8,64.3,152.7
		 M63.9,152.5c-0.1,0.2-0.3,0.3-0.4,0.1c-0.2-0.1,0-0.2-0.2-0.5C63.5,152.3,63.7,152.4,63.9,152.5 M63.3,153.8
		c0-0.1,0.1-0.2,0.2-0.2c0.1,0,0.2,0,0.2-0.1c0.1-0.1-0.1-0.2-0.2-0.3c0.1,0,0.2-0.1,0.1-0.1c-0.1-0.1-0.2,0.1-0.2,0
		c0-0.1,0.1-0.1,0.1-0.1c0.1-0.1,0.1,0,0.2,0l0.5,0.3c0.1,0,0.1,0.1,0.1,0.1c0,0.1,0,0.1,0,0.2c-0.1,0-0.1-0.2-0.1-0.2
		c-0.1,0-0.1,0.1,0,0.2c-0.1-0.1-0.2-0.1-0.3,0c-0.1,0.1,0,0.2,0,0.3c0,0.1,0,0.2,0,0.3c0,0.1-0.2,0.3-0.4,0.2
		C63.2,154.1,63.2,153.9,63.3,153.8 M71.7,162.7c0-0.6-0.7-1-2.6-1c-2,0-6.3,0.7-6.3-0.4c0-0.5,0.9-0.5,1.9-0.4
		c0.1,0.1,0.2,0.2,0.4,0.2c2.5,0.7,5.5-0.6,7-0.2c-1.8-1.4-3.3,0.1-5.2-0.4c1.1,0,1.5-0.3,1.6-0.6c-0.9,0.6-2.5-0.3-3.5,0.4
		c-0.1,0-0.1,0.1-0.2,0.1c-1.4,0-2.5,0-2.5,0.9c0,1.9,5.2,0.8,6.9,0.8c1.6,0,2,0.2,2,0.5c0,0.5-1.6,0.6-2.5,0.6
		c-1.4,0-5.7-0.7-8.3-0.2c0.2-0.4,0.7-1,0.4-1.3c0.2-0.1,0.4-0.3,0.4-0.5c-0.1-0.1-0.3-0.2-0.5-0.2c0.1-0.1,0-0.2-0.1-0.3
		c0,0-0.1-0.3-0.1-0.3c-0.1-0.1-0.3-0.3-0.6-0.4c-0.3-0.1-0.5-0.1-0.6-0.2c-0.1,0-0.3,0.1-0.4,0.1c-0.1,0-0.3,0-0.3,0.1
		c-0.1-0.1-0.3-0.2-0.5-0.2c-0.1,0.2-0.1,0.5-0.1,0.7c-0.2,0-0.5,0.6-0.7,0.5c0.1,0.2,0.2,0.2,0.2,0.3c-0.2,0.3-0.3,0.8-0.5,0.8
		c0.1,0.2,0.2,0.3,0.3,0.3c0,0.2,0,0.5-0.1,0.8l-0.4-0.2c0,0-0.1,0-0.1,0c-0.1,0-0.1,0-0.2-0.1c0.1,0,0.1,0,0.2,0l-0.2-0.1
		c-0.2-0.2-0.5-0.5-0.9-0.7c-0.4-0.2-0.4-0.4-0.4-0.8c0-0.4,0.2-0.7,0.2-1c0,0-0.1-0.2-0.1-0.3c0-0.2-0.3-0.4-0.5-0.3
		c0.1,0.1,0.2,0.1,0.2,0.3c-0.1,0.1-0.1,0.1-0.2,0.2c-0.1,0.1-0.1,0.2,0,0.3c0,0,0,0,0,0.1c0,0.1,0,0.1,0,0.2c0,0.1,0,0,0,0
		c-0.1-0.2-0.2-0.6-0.4-0.6c0,0-0.1,0-0.2,0c0,0,0,0,0,0c0-0.3-0.3-0.5-0.6-0.1c0.1,0,0.2,0,0.2,0.1c0,0.1-0.1,0.2-0.1,0.3
		c0,0.3,0.1,0.3,0.4,0.4c0.1,0,0.1,0,0.1,0c0,0,0,0.1,0,0.1c0,0,0,0,0,0c-0.4-0.2-0.6,0-0.6,0.2c0,0,0,0.1,0,0.2
		c-0.2,0.1-0.2,0.3,0.1,0.5c0-0.1,0-0.2,0.1-0.3c0,0,0,0,0.1,0c0,0,0.1,0.1,0.1,0.1c0.1,0,0.1,0,0.3-0.1c0,0,0.1,0,0.1,0
		c0,0,0.1,0,0.1,0.1c0,0,0,0.1,0,0.1c-0.3,0.3-0.3,0.6,0.1,0.6c0.1,0,0.1,0,0.1,0.1c-0.1,0.6-0.8,0.4-0.7-0.1
		c-0.4,0.6,0.2,1.1,0.8,0.8c0,0,0,0,0.1,0c0,0.1,0.1,0.2,0.2,0.2c0,0,0-0.1,0.1-0.1c0,0,0,0,0,0.1c0,0.1,0,0.3,0.2,0.3
		c0-0.1,0-0.2,0.1-0.2c0.1,0,0.3,0.4,0.8,0.7c0.4,0.2,0.6,0.6,0.9,0.3c0,0.4,0.3,0.8,0.2,0.8c-0.1,0-1.1-0.1-1.4,0.1
		c-0.4,0.2-1.3,0.5-1.5,0.2c-0.1-0.1-0.1-0.2-0.2-0.5c-0.1-0.1-0.2-0.2-0.3-0.2c0,0-0.1,0-0.2,0c-0.2-0.2-0.5-0.2-0.6-0.1
		c0.1,0,0.2,0,0.3,0.2c0,0.1-0.1,0.2-0.1,0.2c-0.1,0.1,0,0.3,0.5,0.5c0,0,0.1,0.1,0,0.1c-0.1,0-0.2,0.1-0.3,0
		c-0.2-0.2-0.3-0.4-0.5-0.3c0,0-0.1,0.1-0.2,0.1c0,0,0,0-0.1,0c-0.2,0-0.6,0.3-0.5,0.6c0.1-0.1,0.2-0.2,0.3-0.3
		c0,0.1,0.1,0.2,0.1,0.2c0.1,0.3,0.2,0.5,0.8,0.1c0.1-0.1,0.1,0,0,0c-0.2,0.3-0.5,0.5-0.2,0.7c0,0,0.1,0.1,0.1,0.1c0,0,0,0,0,0
		c-0.1,0.3,0.3,0.6,0.5,0.6c-0.1-0.1-0.2-0.3-0.2-0.5c0.1,0,0.2,0,0.2,0c0.3-0.1,0.2-0.5,0.3-0.6c0.1,0,0.1,0,0.1,0
		c0,0.2,0.1,0.5,0.4,0.4c0.3,0,0.5-0.3,0.5-0.5c0,0,0,0,0,0c0.1,0.1,0.2,0.2,0.2,0.4c0.1,0,0.2-0.1,0.2-0.2c0.1,0.2,0.1,0.4-0.1,0.6
		c0.1,0,0.5-0.2,0.5-0.6c0,0.1,0.1,0.1,0.1,0.2c0,0,0,0,0,0c0.1,0,0.3,0.1,0.7,0c0,0,0.1,0,0.1,0c0,0.1,0,0.3,0,0.3
		c0,0,0.1-0.2,0.1-0.2c0.1,0,0,0.3,0.2,0.5c0.1-0.9,0.5-0.5,1.1-0.9c0.1,0,0.1,0,0,0c0,0.1-0.1,0.2-0.2,0.3c0.6,0.1,1.5-0.8,1.7-1.2
		c0.2,0,0.5-0.1,0.6,0c1.7,0.2,0.5-1.5,3.3-1.1c0.2,0,0.5-0.2,0.7-0.3c-0.2,0.4-0.2,1.1,0.2,1.2c0.2,0,0.5,0.1,0.6,0.3
		c0,0,0,0,0,0.1c-0.2,0-0.4,0.1-0.5,0.1c-0.6,0.4-0.6-0.9-1.2-0.6c-0.1,0-0.1,0.1-0.2,0.1c-0.2,0-0.6,0.3-0.5,0.5
		c0.1-0.1,0.2-0.2,0.4-0.2c0,0.1,0,0.1,0,0.1c0,0.1,0,0.2,0.2,0.2c0.1,0,0.1-0.1,0.2-0.1c0,0,0.1,0,0.1,0.1c0,0.2-0.8-0.1-0.6,0.5
		c0,0,0.1,0.1,0.1,0.2c0,0.2,0.1,0.4,0.5,0.3c-0.1,0-0.2-0.1-0.2-0.2c0.1,0,0.1,0,0.2,0c0,0,0.1,0,0.1-0.1c0,0,0,0,0,0
		c0,0,0.1,0,0.1,0.1c0,0,0,0.1,0,0.1c0,0,0,0.2,0.1,0.2c0,0.2,0.3,0.5,0.6,0.2c-0.1,0-0.3,0-0.3-0.2c0.1,0,0.2-0.1,0.2-0.1
		c0,0,0.1-0.1,0.1-0.2c0,0,0-0.1,0.1-0.1c0,0,0.1,0,0.2,0c0.1,0,0.1,0,0.1,0c0.1,0.2,0.2,0.3,0.5,0.2c0.4-0.1,0.1-0.5,0.4-0.6
		c0.1,0,0.2,0,0.2,0c0.3,0.1,0.8,0.1,0.9-0.1c0.1-0.2,0-0.8-0.3-1c-0.2-0.1,0-0.4-0.2-0.6c0.4,0.2,0.8,0.3,1.2,0.3
		c0.9,0,1.1-0.1,1.5-0.4c0.4-0.3,0.9-0.1,1.1-0.1c0.1,0,0.2,0.1,0.2,0.2c-0.1,0.5,0,0.5-0.1,0.7c-0.1,0.2-0.5,0-0.7,0
		c-0.2,0-0.3,0.1-0.3,0.1c-0.2,0-0.5,0.2-0.5,0.5c0.1-0.1,0.2-0.2,0.4-0.2c0,0,0,0.1,0,0.1c0,0.3,0.4,0.4,0.6,0.2c0,0,0.1,0,0.1,0
		c-0.2,0.1-0.5,0.4-0.2,0.5c0,0,0.1,0.1,0.2,0.1c0,0.2,0.1,0.4,0.3,0.4c-0.1-0.1-0.1-0.2,0-0.4c0.1,0,0.1,0,0.2,0
		c0.2,0,0.1-0.4,0.3-0.5c0,0,0.1,0,0,0c-0.1,0.2-0.1,0.5,0.1,0.6c0,0,0.1,0,0.2,0c0.1,0.2,0.3,0.3,0.5,0.2c0,0-0.2-0.1-0.2-0.2
		c0-0.1,0.1-0.2,0.1-0.2c0.1-0.5-0.3-0.5-0.3-0.7c0-0.2,0.5-0.1,0.5-0.6c0-0.1,0-0.2-0.2-0.3c0,0,0,0,0,0h0c0.1,0,0.3,0,0.3-0.2
		c-0.4,0-0.3-0.3-0.3-0.5c0,0,0-0.1,0-0.1c0.1-0.1,0.2-0.2,0.2-0.5c-0.1,0.2-0.5,0.3-0.6,0c0,0,0-0.3-0.4-0.2
		c-0.6,0.1-1-0.1-2.1-0.2C69.8,163.7,71.7,163.4,71.7,162.7 M56.5,163.8C56.5,163.8,56.5,163.8,56.5,163.8L56.5,163.8 M59.6,161
		c0.2,0.1,0.5,0.2,0.8,0.3c-0.4,0.1-0.3,0.2-0.5,0.2C59.6,161.5,59.5,161.2,59.6,161 M59.1,160.8c-0.1,0.2-0.3,0.3-0.5,0.2
		c-0.2-0.2,0-0.2-0.2-0.5C58.6,160.5,59,160.7,59.1,160.8 M58.4,162.3c0.1-0.1,0.1-0.2,0.2-0.2c0.1,0,0.2,0,0.2-0.1
		c0.1-0.2-0.1-0.2-0.2-0.3c0.1,0,0.2-0.1,0.1-0.2c-0.1-0.1-0.2,0.1-0.3,0c0-0.1,0.1-0.1,0.1-0.2c0.1-0.1,0.1,0,0.2,0l0.6,0.3
		c0.1,0,0.1,0.1,0.1,0.2c0,0.1,0,0.2,0,0.2c-0.1,0-0.1-0.2-0.2-0.2c-0.1,0-0.1,0.1,0,0.2c-0.2,0-0.3-0.1-0.4,0c-0.1,0.1,0,0.2,0,0.3
		c0.1,0.1,0,0.2,0,0.3c-0.1,0.1-0.2,0.3-0.4,0.2C58.3,162.7,58.3,162.5,58.4,162.3 M60,165.7L60,165.7C60,165.7,60,165.8,60,165.7
		 M70.8,171.2c0-0.6-0.6-0.9-2.5-0.9c-1.8,0-7.6,0.7-7.6-0.4c0-0.7,1.9-0.4,3.3-0.4c0.1,0.1,0.2,0.2,0.4,0.3
		c2.4,0.7,4.9-0.9,6.6-0.4c-1.4-1.2-3.1,0.1-4.9-0.2c1.1,0,2.2-0.2,2.2-0.5c-0.8,0.5-3.1-0.4-4.1,0.2c-0.1,0-0.1,0.1-0.2,0.1
		c-1.8,0-3.9-0.2-3.9,0.8c0,1.9,6.5,0.8,8.1,0.8c1.6,0,1.9,0.2,1.9,0.5c0,0.4-1.6,0.5-2.4,0.5c-1.4,0-7.5-0.8-9.9-0.1
		c0.1-0.4,0.7-1,0.4-1.4c0.2-0.1,0.4-0.3,0.4-0.5c-0.1-0.1-0.3-0.2-0.5-0.2c0.1-0.1,0-0.2-0.1-0.3c0,0-0.1-0.3-0.1-0.3
		c-0.1-0.1-0.3-0.2-0.6-0.4c-0.3-0.1-0.5-0.1-0.5-0.1c-0.1,0-0.3,0.1-0.3,0c-0.1,0-0.3,0-0.3,0.1c-0.1-0.1-0.3-0.2-0.4-0.2
		c-0.1,0.2-0.1,0.4-0.1,0.7c-0.2,0-0.5,0.6-0.7,0.5c0.1,0.2,0.1,0.2,0.2,0.2c-0.2,0.3-0.3,0.7-0.5,0.7c0.1,0.1,0.2,0.2,0.2,0.2
		c0,0.2-0.1,0.4-0.1,0.6l-0.2-0.1c-0.1,0-0.3,0-0.3,0c-0.1,0-0.2,0-0.3,0c-0.3,0-0.5-0.5-1-0.8c-0.4-0.2-0.4-0.4-0.4-0.8
		c0-0.3,0.2-0.6,0.1-0.9c0,0-0.1-0.2-0.1-0.3c-0.1-0.2-0.3-0.4-0.5-0.3c0.1,0.1,0.2,0.1,0.2,0.3c-0.1,0.1-0.1,0.1-0.1,0.2
		c-0.1,0.1-0.1,0.2,0,0.3c0,0,0,0,0,0.1c0,0,0,0.1,0,0.1c0,0.1,0,0,0,0c-0.1-0.2-0.2-0.6-0.4-0.6c0,0-0.1,0-0.2,0c0,0,0,0,0,0
		c0-0.2-0.3-0.4-0.5-0.1c0.1,0,0.2,0,0.2,0.1c0,0.1,0,0.2-0.1,0.2c0,0.2,0.2,0.3,0.4,0.3c0.1,0,0.1,0,0.1,0c0,0,0,0.1,0,0.1
		c0,0,0,0,0,0c-0.4-0.2-0.6,0-0.6,0.2c0,0,0,0.1,0,0.2c-0.2,0.1-0.2,0.3,0.1,0.5c0-0.1,0-0.2,0.1-0.3c0,0,0,0,0,0
		c0,0,0.1,0.1,0.1,0.1c0,0,0.1,0,0.2-0.1c0,0,0.1,0,0.1,0l0.1,0.1c0,0,0,0.1,0,0.1c-0.3,0.3-0.2,0.5,0.1,0.6c0,0,0.1,0,0.1,0.1
		c0,0.5-0.7,0.4-0.7-0.1c-0.4,0.6,0.3,1.1,0.8,0.8c0,0,0.1,0,0.1,0c0,0.1,0.1,0.2,0.2,0.2c0,0,0-0.1,0.1-0.1c0,0,0,0,0,0.1
		c0,0.1,0.1,0.3,0.3,0.3c0-0.1,0-0.2,0.1-0.2c0.1,0,0.5,0.7,1.2,1.1c0.1,0,0.4,0,0.4-0.2c0,0.1,0.1,0.1,0.2,0.2
		c0,0.3,0.2,0.8,0.2,0.8c-0.1,0-1.3-0.1-1.5,0.1c-0.3,0.2-1.2,0.5-1.4,0.1c-0.1-0.1-0.1-0.2-0.2-0.4c-0.1-0.1-0.2-0.2-0.3-0.2
		c0,0-0.1,0-0.2,0c-0.1-0.2-0.5-0.2-0.6-0.1c0.1,0,0.3,0.1,0.3,0.2c0,0.1-0.1,0.2-0.1,0.2c-0.1,0.1,0,0.3,0.5,0.5c0,0,0.1,0.1,0,0.1
		c-0.1,0-0.2,0.1-0.3,0c-0.2-0.2-0.2-0.4-0.5-0.3c0,0-0.1,0-0.2,0.1c0,0,0,0-0.1,0c-0.2,0-0.6,0.3-0.4,0.6c0-0.1,0.1-0.2,0.3-0.3
		c0,0.1,0,0.1,0,0.2c0.1,0.3,0.2,0.5,0.8,0.1c0.1,0,0.1,0,0,0c-0.1,0.2-0.5,0.5-0.2,0.7c0,0,0.1,0.1,0.1,0.1c0,0,0,0,0,0
		c-0.1,0.3,0.3,0.6,0.5,0.5c-0.1-0.1-0.2-0.3-0.2-0.5c0.1,0,0.1,0.1,0.2,0c0.3-0.1,0.2-0.4,0.3-0.5c0.1,0,0.1,0,0.1,0
		c0,0.1,0.1,0.4,0.4,0.4c0.3,0,0.5-0.3,0.4-0.5c0,0,0,0,0,0c0.1,0.1,0.2,0.2,0.2,0.3c0.1-0.1,0.2-0.1,0.2-0.2c0.1,0.2,0,0.4-0.1,0.6
		c0.1,0,0.5-0.2,0.5-0.5c0,0,0.1,0.1,0.1,0.2c0,0,0,0,0,0c0.1,0.1,0.3,0.1,0.6,0c0,0,0,0,0,0c0,0.1,0,0.3,0,0.3c0,0,0.1-0.2,0.1-0.2
		c0.1,0,0,0.3,0.2,0.5c0.1-0.8,1-0.4,1.6-0.7c0.1,0,0.1,0,0.1,0c0,0.1-0.1,0.2-0.2,0.3c0.2,0,0.5-0.1,0.7-0.3l-0.1,0.1l0.8-0.4
		c0-0.1,0-0.2,0-0.2c0.1,0,0.2,0,0.3-0.1c0,0,0,0,0,0c0.5,0,0.5-0.4,0.7-0.4c3,0.4,1.3-1.3,4.9-1c0.2,0,0.2-0.1,0.4-0.2
		c-0.2,0.4-0.2,0.9,0.2,1c0.2,0,0.5,0.1,0.6,0.3c0,0,0,0.1,0,0.1c-0.2,0-0.3,0.1-0.5,0.1c-0.6,0.4-0.6-0.8-1.2-0.6
		c-0.1,0-0.1,0.1-0.2,0.1c-0.2,0-0.6,0.3-0.5,0.5c0.1-0.1,0.2-0.2,0.4-0.2c0,0.1,0,0.1,0,0.1c0,0.1,0,0.2,0.2,0.2
		c0.1,0,0.2-0.1,0.2-0.1c0,0,0.1,0,0.1,0.1c0,0.2-0.7-0.1-0.6,0.5c0,0,0.1,0.1,0.1,0.2c0,0.2,0.1,0.4,0.5,0.3
		c-0.1,0-0.2-0.1-0.2-0.2h0.2c0,0,0.1,0,0.1-0.1c0,0,0,0,0,0c0,0,0.1,0,0.1,0.1c0,0,0,0.1,0,0.1c0,0,0,0.2,0.1,0.2
		c0,0.2,0.3,0.5,0.6,0.2c-0.1,0-0.3,0-0.3-0.2c0,0,0.1-0.1,0.1-0.1c0.1,0,0.1-0.1,0.1-0.2c0,0,0-0.1,0.1-0.1l0.1,0
		c0.1,0,0.1,0,0.1,0c0.1,0.2,0.2,0.3,0.5,0.2c0.4-0.1,0.1-0.5,0.4-0.6c0.1,0,0.2,0,0.2,0c0.3,0.1,0.8,0.1,0.9-0.1
		c0.1-0.2,0-0.7-0.3-0.9c-0.2-0.1,0-0.3-0.2-0.6c0.3,0.1,0.7,0.3,1.2,0.3c0.9,0,1.1-0.1,1.4-0.4c0.4-0.3,0.9-0.1,1-0.1
		c0.1,0,0.2,0.1,0.2,0.2c-0.1,0.4,0,0.5-0.1,0.7c-0.1,0.2-0.5,0-0.7,0c-0.2,0-0.3,0.1-0.3,0.1c-0.2,0-0.5,0.2-0.4,0.5
		c0.1,0,0.2-0.2,0.4-0.2c0,0,0,0.1,0,0.1c0,0.3,0.4,0.4,0.5,0.2c0,0,0.1,0,0.1,0c-0.2,0.1-0.5,0.4-0.2,0.5c0,0,0.1,0,0.2,0.1
		c0,0.2,0.1,0.4,0.3,0.4c-0.1-0.1-0.1-0.2,0-0.3h0.1c0.2,0,0.1-0.4,0.3-0.5c0,0,0,0,0,0c-0.1,0.2-0.1,0.5,0.1,0.5c0,0,0.1,0,0.2,0
		c0.1,0.2,0.3,0.3,0.5,0.2c-0.1,0-0.2-0.1-0.2-0.2c0.1-0.1,0.1-0.1,0.1-0.2c0.1-0.5-0.2-0.5-0.2-0.6c0-0.2,0.5-0.1,0.5-0.5
		c0-0.1-0.1-0.2-0.2-0.3c0,0,0,0,0,0c0.1,0,0.3,0,0.3-0.1c-0.3,0-0.2-0.3-0.3-0.5c0,0,0-0.1,0-0.1c0.1-0.1,0.2-0.2,0.1-0.5
		c-0.1,0.2-0.5,0.3-0.5,0c0,0,0-0.2-0.4-0.2c-0.6,0.1-0.9-0.1-2-0.2C68.9,172.1,70.8,171.9,70.8,171.2 M57.3,169.7
		c0.1,0.1,0.5,0.2,0.7,0.3c-0.3,0.1-0.3,0.2-0.5,0.2C57.3,170.2,57.2,169.9,57.3,169.7 M56.8,169.5c-0.1,0.2-0.3,0.3-0.5,0.1
		c-0.2-0.2,0-0.2-0.2-0.5C56.4,169.3,56.6,169.4,56.8,169.5 M56.1,171c0.1-0.1,0.1-0.2,0.2-0.2c0.1,0,0.2,0,0.2-0.1
		c0.1-0.1-0.1-0.2-0.2-0.3c0.1,0,0.2-0.1,0.1-0.2c-0.1-0.1-0.2,0.1-0.3,0c0-0.1,0.1-0.1,0.1-0.1c0.1-0.1,0.1,0,0.2,0l0.6,0.3
		c0.1,0,0.1,0.1,0.1,0.2c0,0.1,0,0.2,0,0.2c-0.1,0-0.1-0.2-0.2-0.2c-0.1,0-0.1,0.1,0,0.2c-0.1,0-0.3-0.1-0.3,0c-0.1,0.1,0,0.2,0,0.3
		c0,0.1,0,0.2,0,0.3c-0.1,0.1-0.2,0.3-0.4,0.2C56,171.3,56.1,171.1,56.1,171 M97.2,185.5C97.2,185.5,97.2,185.5,97.2,185.5
		c0.1-0.2,0.2-0.3,0.2-0.6c-0.1,0.2-0.5,0.4-0.5,0c0,0,0-0.2-0.3-0.2c-0.6,0.1-1.1,0-2.2-0.1c-0.1,0-0.1-0.1,0-0.1
		c1.1-0.1,3-0.2,3-0.9c0-0.6-0.6-0.9-2.5-0.9c-1.8,0-7.6,0.7-7.6-0.4c0-0.7,1.9-0.4,3.3-0.3c0.1,0.1,0.2,0.2,0.4,0.2
		c2.4,0.7,5.1-1.1,6.6-0.7c-1.9-0.6-3.1,0.5-4.9,0.1c1.1,0,2.2-0.2,2.2-0.5c-0.8,0.5-3.1-0.4-4.1,0.2c-0.1,0-0.1,0.1-0.2,0.1
		c-1.8,0-3.9-0.2-3.9,0.8c0,1.8,6.5,0.8,8,0.8c1.6,0,1.9,0.2,1.9,0.5c0,0.5-1.5,0.6-2.4,0.6c-1.5,0-7.5-0.8-9.9-0.1
		c0.1-0.4,0.7-1,0.5-1.4c0.2-0.1,0.4-0.3,0.4-0.5c-0.1-0.1-0.3-0.2-0.5-0.2c0.1-0.1,0-0.2-0.1-0.3c0,0-0.1-0.3-0.1-0.3
		c-0.2-0.2-0.3-0.3-0.5-0.4c-0.3-0.1-0.4-0.1-0.6-0.1c-0.1,0-0.3,0.1-0.3,0c-0.1,0-0.3,0-0.3,0.1c-0.1-0.1-0.3-0.2-0.4-0.2
		c-0.1,0.2-0.1,0.4,0,0.7c-0.2,0-0.5,0.6-0.7,0.5c0.1,0.2,0.1,0.2,0.2,0.2c-0.2,0.3-0.3,0.7-0.5,0.7c0.1,0.2,0.2,0.3,0.3,0.3
		c0,0.2,0,0.4,0,0.6l-0.3-0.1c-0.1,0-0.3,0-0.3,0c-0.1,0-0.2,0-0.3-0.1c-0.3,0-0.5-0.5-1-0.8c-0.4-0.2-0.4-0.4-0.4-0.8
		c0-0.3,0.2-0.6,0.1-0.9c0-0.1-0.1-0.2-0.1-0.3c-0.1-0.2-0.3-0.4-0.5-0.3c0.1,0.1,0.2,0.2,0.2,0.3c-0.1,0.1-0.1,0.2-0.2,0.2
		c-0.1,0.1-0.1,0.2,0,0.3c0,0,0,0,0,0.1c0,0,0,0.1,0,0.2c0,0.1,0,0,0,0c-0.1-0.2-0.2-0.6-0.4-0.6l-0.2,0c0,0,0,0,0,0
		c0-0.2-0.3-0.4-0.5-0.1c0.1,0,0.2,0,0.2,0.1c0,0.1-0.1,0.2-0.1,0.2c0,0.2,0.2,0.3,0.4,0.3c0.1,0,0.1,0,0.1,0.1c0,0,0,0.1,0,0.1
		c0,0,0,0,0,0c-0.4-0.2-0.6,0-0.6,0.2c0,0,0,0.1,0,0.2c-0.1,0.1-0.2,0.3,0.1,0.5c0-0.1,0-0.2,0.1-0.3c0,0,0,0,0,0l0.1,0.1
		c0,0,0.1,0,0.2-0.1c0,0,0.1,0,0.1,0c0,0,0.1,0.1,0.1,0.1c0,0,0,0.1,0,0.1c-0.3,0.3-0.2,0.6,0.1,0.6c0,0,0.1,0,0.1,0.1
		c0,0.5-0.7,0.4-0.7-0.1c-0.4,0.6,0.3,1.1,0.8,0.8c0,0,0.1,0,0.1,0c0,0.1,0.1,0.2,0.2,0.2c0,0,0-0.1,0.1-0.1c0,0,0,0,0,0.1
		c0,0.1,0.1,0.3,0.3,0.3c0-0.1,0-0.2,0.1-0.2c0.1,0,0.4,0.8,1.2,1.2c0-0.1,0.3-0.2,0.4-0.3c0,0.1,0.1,0.3,0.3,0.3l0.1-0.1
		c0,0.3,0.4,0.7,0.3,0.7c-0.1,0-0.8-0.1-1.1,0c-0.3,0.2-1.2,0.5-1.5,0.2c-0.1-0.1-0.1-0.2-0.2-0.4c-0.1-0.1-0.2-0.2-0.3-0.2H79
		c-0.1-0.1-0.5-0.2-0.6-0.1c0.1,0,0.2,0,0.3,0.2l-0.1,0.2c-0.1,0.1,0,0.3,0.5,0.5c0,0,0.1,0.1,0,0.1c-0.1,0-0.2,0.1-0.3,0
		c-0.2-0.1-0.2-0.4-0.5-0.2c0,0-0.1,0-0.2,0.1h-0.1c-0.2,0-0.6,0.3-0.4,0.6c0-0.1,0.2-0.2,0.3-0.3l0.1,0.2c0.1,0.3,0.2,0.5,0.7,0.1
		c0.1,0,0.1,0,0,0c-0.1,0.2-0.5,0.5-0.2,0.7c0,0,0.1,0.1,0.1,0.1l0,0.1c0,0.3,0.3,0.6,0.5,0.5c-0.1-0.1-0.2-0.3-0.2-0.5
		c0.1,0,0.1,0.1,0.2,0c0.3-0.1,0.1-0.4,0.3-0.5c0,0,0.1,0,0.1,0c0,0.1,0.1,0.4,0.4,0.4c0.3,0,0.5-0.3,0.4-0.4c0,0,0,0,0,0
		c0.1,0.1,0.2,0.2,0.1,0.4c0.1-0.1,0.2-0.1,0.2-0.2c0.1,0.2,0.1,0.4-0.1,0.6c0.3-0.1,0.5-0.3,0.5-0.6c0.1,0,0.1,0.1,0.1,0.2
		c0,0,0,0,0,0c0.1,0.1,0.3,0.1,0.6,0c0,0,0,0,0,0c0,0.1,0,0.3,0,0.3c0,0,0.1-0.2,0.1-0.2c0.1,0,0,0.3,0.2,0.5c0.1-0.8,0.5-0.5,1-0.8
		c0.1,0,0.1,0,0.1,0c0,0.1-0.1,0.2-0.2,0.3c0.2,0.2,0.9-0.3,0.9-0.6c0-0.1,0.3-0.1,0.5-0.2c0.5,0,0.5-0.4,0.7-0.4
		c3,0.4,1.3-1.3,4.9-1c0.2,0,0.3-0.2,0.4-0.3c-0.2,0.3-0.2,1,0.2,1.1c0.2,0,0.4,0.1,0.6,0.3c0,0,0,0.1,0,0.1c-0.2,0-0.3,0.1-0.5,0.1
		c-0.5,0.4-0.6-0.8-1.2-0.6c-0.1,0-0.1,0.1-0.2,0.1c-0.2,0-0.6,0.3-0.5,0.5c0.1-0.1,0.2-0.2,0.4-0.2v0.1c0,0.1,0,0.2,0.2,0.2
		c0.1,0,0.2-0.1,0.2-0.1c0,0,0.1,0,0.1,0.1c0,0.2-0.7-0.1-0.6,0.5c0,0.1,0.1,0.1,0.1,0.2c0,0.2,0.1,0.4,0.4,0.3
		c-0.1,0-0.2-0.1-0.1-0.2c0.1,0,0.1,0,0.1,0c0,0,0.1,0,0.1-0.1c0,0,0,0,0,0s0.1,0,0.1,0.1c0,0,0,0.1,0,0.1c0,0,0,0.2,0,0.2
		c0,0.2,0.3,0.5,0.6,0.2c-0.1,0-0.3-0.1-0.3-0.2l0.2-0.1c0.1,0,0.1-0.1,0.1-0.2c0-0.1,0-0.1,0-0.1l0.2,0c0.1,0,0.1,0,0.1,0
		c0.1,0.1,0.2,0.3,0.5,0.2c0.4-0.1,0.1-0.5,0.4-0.5c0.1,0,0.2,0,0.2,0c0.3,0.1,0.8,0.1,0.8-0.1c0.1-0.2,0-0.7-0.3-0.9
		c-0.2-0.1,0-0.3-0.2-0.6c0.3,0.1,0.7,0.3,1.2,0.3c0.9,0,1.1-0.1,1.5-0.4c0.4-0.3,0.9-0.1,1-0.1c0.1,0,0.2,0.1,0.1,0.2
		c-0.1,0.4,0,0.5-0.1,0.7c-0.1,0.2-0.4,0-0.7,0c-0.1,0-0.2,0-0.3,0.1c-0.2,0-0.5,0.2-0.5,0.5c0.1-0.1,0.2-0.2,0.4-0.2v0.1
		c0,0.3,0.3,0.4,0.5,0.2c0,0,0.1,0,0.1,0c-0.2,0.1-0.5,0.4-0.3,0.5l0.1,0.1c0,0.2,0.1,0.4,0.2,0.4c0-0.1-0.1-0.2,0.1-0.4H96
		c0.2,0,0.1-0.4,0.4-0.5c0,0,0,0,0,0c-0.1,0.2-0.2,0.5,0,0.5c0,0,0.1,0,0.1,0c0.1,0.2,0.2,0.3,0.5,0.2c-0.1,0-0.2-0.1-0.2-0.2
		c0.1-0.1,0.1-0.2,0.1-0.2c0.2-0.5-0.2-0.5-0.2-0.6c0-0.2,0.5-0.1,0.5-0.5c0-0.1-0.1-0.2-0.2-0.3c0,0,0,0,0,0c0.1,0,0.3,0,0.3-0.1
		C97.2,186,97.3,185.7,97.2,185.5L97.2,185.5z M83.9,182.1c0.2,0.1,0.5,0.2,0.7,0.3c-0.3,0.1-0.3,0.2-0.5,0.2
		C83.9,182.5,83.8,182.2,83.9,182.1z M83.4,181.8c-0.1,0.2-0.3,0.3-0.5,0.2c-0.2-0.2,0-0.2-0.2-0.5C83,181.6,83.3,181.8,83.4,181.8
		L83.4,181.8z M82.7,183.3c0.1-0.1,0.1-0.2,0.2-0.2c0.1,0,0.2,0,0.2-0.1c0-0.1-0.1-0.2-0.2-0.3c0.1,0,0.2-0.1,0.1-0.2
		c-0.1-0.1-0.2,0.1-0.2,0c0-0.1,0.1-0.1,0.1-0.2c0.1,0,0.1,0,0.2,0l0.6,0.3c0.1,0,0.1,0.1,0.1,0.2c0,0.1,0,0.2,0,0.2
		c-0.1,0-0.1-0.2-0.2-0.2c-0.1,0-0.1,0.1,0,0.2c-0.2,0-0.3-0.1-0.4,0c-0.1,0.1,0,0.2,0.1,0.3c0,0.1,0,0.2,0,0.3
		c-0.1,0.1-0.2,0.3-0.4,0.2C82.6,183.7,82.6,183.4,82.7,183.3L82.7,183.3z M82.2,182.5L82.2,182.5L82.2,182.5z M82.4,181.8
		C82.4,181.8,82.3,181.8,82.4,181.8C82.3,181.9,82.4,181.8,82.4,181.8L82.4,181.8z M88.9,190.2c0.1,0.1,0.2,0.2,0.4,0.3
		c2.3,0.7,4.9-1.1,6.3-0.7c-1.8-0.6-2.9,0.5-4.7,0.1c1,0,2.1-0.2,2.1-0.5c-0.8,0.5-3-0.3-3.9,0.2c-0.1,0-0.1,0.1-0.1,0.1
		c-1.3,0-2.3,0-2.3,0.8c0,1.8,4.7,0.7,6.2,0.7c1.5,0,1.3,0.2,1.3,0.4c0,0.4-1.7,0.5-2.5,0.5c-1.3,0-5.1-0.7-7.5-0.2
		c0.2-0.4,0.6-0.9,0.4-1.2c0.2-0.1,0.4-0.3,0.4-0.5c-0.1-0.1-0.3-0.2-0.4-0.2c0.1-0.1,0-0.2-0.1-0.3c0,0-0.1-0.3-0.1-0.3
		c-0.1-0.1-0.3-0.3-0.5-0.4c-0.3-0.1-0.4-0.1-0.5-0.2c-0.1,0-0.3,0-0.3,0c-0.1,0-0.3,0-0.3,0.1c-0.1-0.1-0.2-0.2-0.4-0.2
		c-0.1,0.2-0.1,0.4-0.1,0.6c-0.2,0-0.4,0.6-0.6,0.5c0.1,0.1,0.1,0.2,0.2,0.2c-0.2,0.3-0.3,0.7-0.4,0.7c0.1,0.1,0.1,0.1,0.2,0.2
		c-0.1,0.2-0.1,0.4-0.1,0.7l-0.2-0.1c0,0-0.1,0-0.1,0c-0.3,0-0.5,0-0.9-0.3c-0.4-0.2-0.4-0.4-0.4-0.7c0-0.3,0.1-0.6,0.1-0.9
		c0-0.1,0-0.2-0.1-0.3c-0.1-0.2-0.3-0.3-0.5-0.3c0.1,0.1,0.2,0.2,0.2,0.3c-0.1,0-0.1,0.1-0.1,0.2c-0.1,0.1-0.1,0.2,0,0.3
		c0,0,0,0,0,0.1c0,0,0,0.1,0,0.1c0,0.1,0,0,0,0c-0.1-0.2-0.2-0.5-0.4-0.5c0,0-0.1,0-0.1,0v0c0-0.2-0.2-0.4-0.5-0.1
		c0.1,0,0.2,0,0.2,0.1c0,0.1-0.1,0.2-0.1,0.2c0,0.2,0.2,0.3,0.4,0.3c0,0,0.1,0,0.1,0.1c0,0,0,0.1,0,0.1c0,0,0,0,0,0
		c-0.4-0.2-0.6,0-0.6,0.2c0,0,0,0.1,0,0.2c-0.1,0.1-0.2,0.3,0.1,0.5c0-0.1,0-0.2,0.1-0.2c0,0,0,0,0.1,0c0,0.1,0.1,0.1,0.1,0.1
		c0,0,0.1,0,0.2-0.1c0,0,0.1,0,0.1,0c0,0,0.1,0.1,0.1,0.1c0,0,0,0,0,0.1c-0.3,0.3-0.2,0.5,0.1,0.6c0.1,0,0.1,0,0.1,0.1
		c0,0.5-0.7,0.4-0.7-0.1c-0.4,0.6,0.3,1,0.8,0.7c0,0,0,0,0,0c0,0.1,0.1,0.2,0.2,0.2c0,0,0-0.1,0.1-0.1c0,0,0,0,0,0.1
		c0,0.1,0.1,0.3,0.2,0.3c0-0.1,0-0.2,0.1-0.2c0.1,0,0.1-0.2,0.7,0.1c0,0.1,0.1,0.2,0.2,0.2l0.5-0.1c-0.1,0.3,0.1,0.9,0,0.9
		c-0.1,0-0.8-0.1-1,0c-0.3,0.2-1.1,0.5-1.4,0.1c-0.1-0.1-0.1-0.2-0.2-0.4c-0.1-0.1-0.2-0.2-0.3-0.2h-0.2c-0.1-0.1-0.4-0.2-0.6-0.1
		c0.1,0,0.2,0,0.3,0.2c0,0.1-0.1,0.1-0.1,0.2c-0.1,0.1,0,0.3,0.5,0.5c0,0,0.1,0.1,0,0.1c-0.1,0-0.2,0-0.3,0
		c-0.2-0.2-0.2-0.4-0.5-0.2c0,0-0.1,0-0.2,0.1c0,0,0,0-0.1,0c-0.2,0-0.6,0.3-0.4,0.5c0-0.1,0.2-0.2,0.3-0.2c0,0.1,0,0.1,0,0.2
		c0.1,0.3,0.2,0.5,0.7,0.1c0.1,0,0.1,0,0.1,0c-0.1,0.2-0.5,0.5-0.2,0.6c0,0,0.1,0.1,0.1,0.1c0,0,0,0,0,0.1c0,0.3,0.3,0.5,0.5,0.5
		c-0.1-0.1-0.2-0.3-0.2-0.5c0.1,0,0.1,0.1,0.2,0c0.3-0.1,0.1-0.4,0.3-0.5c0,0,0.1,0,0.1,0c0,0.1,0.1,0.4,0.4,0.4
		c0.3,0,0.4-0.3,0.4-0.4c0,0,0,0,0,0c0.1,0.1,0.2,0.2,0.1,0.3c0,0,0.2-0.1,0.2-0.2c0.1,0.1,0.1,0.3-0.1,0.5c0.1,0,0.4-0.2,0.5-0.5
		c0.1,0,0.1,0.1,0.1,0.2c0,0,0,0,0,0c0.1,0,0.3,0.1,0.6,0c0,0,0,0,0,0c0,0.1,0,0.2,0,0.3c0,0,0.1-0.2,0.1-0.2c0.1,0,0,0.3,0.2,0.5
		c0.1-0.8,0.7-0.6,1.2-0.9c0.1,0,0.1,0,0.1,0c0,0.1-0.1,0.2-0.2,0.3c0.5,0.3,1.1-0.4,1.2-0.8c0.1,0,0.1-0.1,0.1-0.2
		c0,0.1,0,0.2-0.1,0.2c0.5,0,0.5-0.4,0.7-0.4c1.5,0.1,0.4-1.3,2.8-0.9c0.2,0,0.5-0.1,0.6-0.3c-0.2,0.3-0.2,1,0.2,1.1
		c0.2,0,0.5,0.1,0.6,0.2c0,0,0,0.1,0,0.1c-0.2,0-0.3,0-0.5,0.1c-0.5,0.3-0.5-0.8-1.1-0.6c-0.1,0-0.1,0.1-0.2,0.1
		c-0.2,0-0.5,0.3-0.5,0.5c0.1-0.1,0.2-0.2,0.4-0.2v0.1c0,0.1,0,0.2,0.2,0.2c0.1,0,0.2-0.1,0.2-0.1c0,0,0.1,0,0.1,0.1
		c0,0.2-0.7-0.1-0.6,0.5c0,0,0.1,0.1,0.1,0.2c0,0.2,0.1,0.4,0.4,0.3c-0.1,0-0.2-0.1-0.1-0.2c0,0,0.1,0,0.1,0c0,0,0.1,0,0.1-0.1
		c0,0,0,0,0,0c0,0,0.1,0,0.1,0.1c0,0,0,0.1,0,0.1c0,0,0,0.2,0.1,0.2c0,0.2,0.3,0.4,0.6,0.2c-0.1,0-0.3-0.1-0.3-0.2
		c0.1,0,0.1-0.1,0.1-0.1c0.1,0,0.1-0.1,0.1-0.2c0,0,0,0,0.1,0c0,0,0.1,0,0.1,0c0.1,0,0.1,0,0.1,0c0.1,0.1,0.2,0.3,0.4,0.2
		c0.4-0.1,0-0.5,0.3-0.5c0.1,0,0.2,0,0.2,0c0.3,0.1,0.7,0.1,0.8-0.1c0.1-0.1,0-0.7-0.3-0.9c-0.2-0.1,0-0.3-0.2-0.6
		c0.3,0.1,0.7,0.3,1.1,0.3c0.8,0,1.2-0.1,1.6-0.3c0.5-0.2,0.9-0.1,1-0.1c0.1,0,0.2,0.1,0.1,0.2c-0.2,0.4-0.1,0.5-0.2,0.6
		c-0.1,0.2-0.4,0-0.7,0c-0.1,0-0.2,0-0.3,0.1c-0.2,0.1-0.5,0.2-0.5,0.5c0.1,0,0.2-0.2,0.4-0.2l0,0.1c0,0.3,0.2,0.4,0.5,0.2
		c0,0,0.1,0,0.1,0c-0.2,0.1-0.6,0.4-0.4,0.5c0,0,0.1,0,0.1,0.1c-0.1,0.2,0,0.4,0.1,0.4c0-0.1,0-0.2,0.1-0.3c0.1,0,0.1,0,0.1,0
		c0.2,0,0.2-0.4,0.4-0.5c0,0,0.1,0,0,0c-0.1,0.2-0.2,0.5-0.1,0.5c0,0,0.1,0,0.1,0c0,0.2,0.2,0.3,0.5,0.1c-0.1,0-0.2-0.1-0.2-0.2
		l0.2-0.2c0.2-0.4-0.1-0.4-0.1-0.6c0.1-0.2,0.4-0.1,0.6-0.5c0-0.1,0-0.2-0.1-0.3c0,0,0,0,0,0h0c0.1,0,0.2,0,0.4-0.2
		c-0.3,0-0.2-0.2-0.2-0.4c0,0,0-0.1,0-0.1c0.1-0.1,0.2-0.2,0.3-0.5c-0.1,0.2-0.5,0.3-0.5,0c0,0,0-0.2-0.3-0.2
		c-0.5,0-1.3-0.1-2.3-0.2c-0.1,0-0.1-0.1,0-0.1c1-0.1,3.1-0.2,3.1-0.9c0-0.5-0.1-0.9-1.9-0.9c-1.8,0-5.8,0.6-5.8-0.3
		C87.2,190.1,88,190.1,88.9,190.2 M83.1,190.1c-0.1,0.2-0.3,0.3-0.5,0.1c-0.1-0.2,0-0.2-0.2-0.5C82.7,189.8,83,190,83.1,190.1
		 M83.5,191.1c-0.1,0-0.1-0.2-0.1-0.2c-0.1,0-0.1,0.1,0,0.2c-0.1,0-0.3-0.1-0.3,0c-0.1,0.1,0,0.2,0,0.3c0.1,0.1,0,0.2,0,0.3
		c0,0.1-0.2,0.3-0.4,0.2c-0.2-0.1-0.2-0.3-0.1-0.4c0.1-0.1,0.1-0.2,0.2-0.2c0.1,0,0.2,0,0.2-0.1c0-0.1-0.1-0.2-0.2-0.3
		c0.1,0,0.2-0.1,0.1-0.2c-0.1-0.1-0.2,0-0.2,0c0-0.1,0.1-0.1,0.1-0.1c0,0,0.1,0,0.2,0l0.6,0.3c0.1,0,0.1,0.1,0.1,0.2
		C83.5,191,83.6,191.1,83.5,191.1 M83.8,190.7c-0.2,0-0.3-0.3-0.2-0.5c0.2,0.1,0.4,0.2,0.7,0.3C83.9,190.6,84,190.7,83.8,190.7
		 M87,198.4c0,0.1,0.2,0.2,0.4,0.3c2.3,0.6,4.9-1.1,6.3-0.7c-1.8-0.6-2.9,0.5-4.7,0.1c1,0,2.1-0.2,2.1-0.5c-0.8,0.5-3-0.4-3.9,0.2
		c-0.1,0-0.1,0.1-0.2,0.2c-0.7,0.2-1.3,0.5-1.3,1.1c0,1.5,5.8,0.3,5.8,0.8c0,0.4-1.1,0.8-2.7,0.8c-1.2,0-3.2-0.8-5.7-0.1v0
		c0.2-0.4,0.7-1.1,0.5-1.4c0.2-0.1,0.4-0.2,0.4-0.4c-0.1-0.1-0.3-0.2-0.4-0.2c0.1-0.1,0-0.2-0.1-0.3c0,0-0.1-0.2-0.1-0.3
		c-0.1-0.1-0.2-0.2-0.5-0.3c-0.2-0.1-0.4-0.1-0.5-0.2c-0.1,0-0.3,0.1-0.3,0.1c-0.1,0-0.3,0-0.3,0.1c-0.1-0.1-0.2-0.1-0.4-0.2
		c-0.1,0.2-0.1,0.4-0.1,0.6c-0.2,0-0.4,0.5-0.6,0.5c0.1,0.2,0.1,0.2,0.2,0.2c-0.2,0.3-0.2,0.7-0.4,0.7c0.1,0.1,0.2,0.2,0.2,0.2
		c-0.1,0.5-0.1,0.9-0.1,1.4c-0.4-0.4-0.9-1.2-1.2-1.4c-0.3-0.2-0.3-0.4-0.3-0.7c0-0.3,0.1-0.5,0.1-0.8c0-0.1,0-0.2-0.1-0.3
		c-0.1-0.2-0.3-0.3-0.4-0.3c0.1,0.1,0.2,0.1,0.2,0.3c-0.1,0.1-0.1,0.1-0.1,0.2c-0.1,0.1-0.1,0.2,0,0.3c0,0,0,0,0,0.1s0,0.1,0,0.1
		c0,0.1,0,0,0,0c-0.1-0.2-0.2-0.5-0.3-0.5l-0.1,0c0,0,0,0,0,0c0-0.2-0.2-0.4-0.5-0.1c0.1,0,0.2,0,0.2,0.1c0,0.1,0,0.2,0,0.2
		c0,0.2,0.1,0.3,0.4,0.3c0,0,0.1,0,0.1,0c0,0,0,0.1,0,0.1c0,0,0,0,0,0c-0.4-0.2-0.5,0-0.6,0.2c0,0,0,0.1,0,0.2
		c-0.1,0.1-0.2,0.3,0.1,0.4c0-0.1,0-0.2,0.1-0.2c0,0,0,0,0.1,0c0,0,0.1,0.1,0.1,0.1c0,0,0.1,0,0.2-0.1c0,0,0,0,0.1,0
		c0,0,0.1,0,0.1,0.1c0,0,0,0,0,0.1c-0.3,0.2-0.2,0.5,0.1,0.6c0,0,0.1,0,0.1,0.1c0,0.5-0.7,0.4-0.6-0.1c-0.3,0.5,0.3,1,0.7,0.7
		c0,0,0,0,0.1,0c0,0.1,0.1,0.2,0.2,0.2c0,0,0-0.1,0.1-0.1c0,0,0,0,0,0.1c0,0.1,0,0.3,0.2,0.3c0-0.1,0-0.2,0.1-0.2
		c0.1,0,0,0.7,0.7,1.1c0.1,0.4,0.4,0.6,0.8,0.6c0.1,0.3,0.3,0.5,0.2,0.5c-0.1,0-0.9-0.1-1.1,0c-0.2,0.1-0.5,0.2-0.7,0.3l0,0.1
		c0,0,0,0,0-0.1c-0.2,0-0.4,0-0.6-0.1c-0.1-0.1-0.1-0.2-0.1-0.4c-0.1-0.1-0.2-0.2-0.2-0.2h-0.2c-0.1-0.1-0.4-0.2-0.5-0.1
		c0.1,0,0.2,0,0.3,0.2c0,0.1-0.1,0.1-0.1,0.2c-0.1,0.1,0,0.3,0.5,0.4c0,0,0.1,0.1,0,0.1c-0.1,0-0.2,0.1-0.3,0
		c-0.2-0.1-0.2-0.4-0.5-0.2c0,0-0.1,0.1-0.1,0.1c0,0,0,0-0.1,0c-0.2,0-0.5,0.2-0.4,0.5c0-0.1,0.1-0.2,0.3-0.2c0,0.1,0,0.1,0.1,0.2
		c0,0.2,0.1,0.5,0.6,0.1c0.1,0,0.1,0,0,0c-0.1,0.2-0.5,0.4-0.2,0.6c0,0,0.1,0,0.1,0.1c0,0,0,0,0,0.1c-0.1,0.3,0.3,0.5,0.4,0.5
		c-0.1-0.1-0.2-0.2-0.2-0.4c0.1,0,0.1,0.1,0.2,0c0.2-0.1,0.1-0.4,0.3-0.5c0,0,0.1,0,0.1,0c0,0.1,0.1,0.4,0.4,0.4
		c0.3,0,0.4-0.3,0.4-0.4c0,0,0,0,0,0c0.1,0.1,0.2,0.2,0.1,0.3c0.1,0,0.2-0.1,0.2-0.2c0.1,0.1,0.1,0.3-0.1,0.5
		c0.2-0.1,0.4-0.3,0.5-0.5c0,0.1,0.1,0.1,0.1,0.2c0,0,0,0,0,0c0.1,0.1,0.3,0.1,0.6,0c0,0,0,0,0,0c0,0.1,0,0.2,0,0.3
		c0,0,0.1-0.2,0.1-0.2c0.1,0,0,0.3,0.2,0.5c0.1-0.7,0.5-0.4,0.9-0.8c0.1,0,0.1,0,0,0c0,0.1-0.1,0.2-0.2,0.2c0.2,0,0.7-0.2,0.7-0.5
		c0-0.1,0.3-0.4,0.4-1.3c0.1,0,0.1,0,0.2,0c0.6,0,0.9-0.5,1.5-0.5c-0.1,0.2-0.2,0.6-0.2,0.9c0,0.3,0.4,0.7,0.6,0.8c0,0,0,0,0,0
		c-0.2,0-0.3,0.1-0.4,0.1c-0.5,0.3-0.5-0.8-1-0.6c-0.1,0-0.1,0.1-0.1,0.1c-0.2,0-0.5,0.2-0.5,0.5c0.1-0.1,0.2-0.2,0.3-0.2v0.1
		c0,0.1,0,0.2,0.2,0.2c0.1,0,0.1,0,0.2,0c0,0,0.1,0,0.1,0.1c0,0.2-0.7-0.1-0.5,0.4c0,0,0.1,0.1,0.1,0.2c0,0.2,0.1,0.3,0.4,0.2
		c-0.1-0.1-0.2-0.1-0.1-0.2c0.1,0,0.1,0,0.1,0c0,0,0.1,0,0.1-0.1c0,0,0,0,0,0c0,0,0.1,0,0.1,0.1c0,0,0,0.1,0,0.1c0,0,0,0.2,0,0.2
		c0,0.2,0.3,0.4,0.6,0.2c-0.1,0-0.3,0-0.3-0.1c0.1,0,0.1,0,0.1-0.1c0,0,0.1-0.1,0.1-0.2c0-0.1,0-0.1,0-0.1c0,0,0.1,0,0.1,0
		c0.1,0,0.1,0,0.1,0.1c0.1,0.1,0.2,0.2,0.4,0.2c0.4-0.1,0.1-0.4,0.3-0.5c0.1,0,0.1,0,0.2,0c0.3,0.1,0.5,0.1,0.6,0
		c0.1-0.1,0-0.6-0.3-0.8c-0.2-0.1,0.3-1.2-0.6-1.7c0.4,0.1,1.7,0.3,1.9,0c0.4,0.1,0.8,0.4,0.9,0.4c0,0.1,0.1,0.2,0,0.2
		c-0.3,0.2-0.3,0.3-0.5,0.4l0,0c-0.1-0.1-0.2-0.3-0.3-0.3c-0.1-0.1-0.2,0-0.3,0c-0.2,0-0.5,0-0.5,0.2c0.1,0,0.2-0.1,0.4,0
		c0,0,0,0.1,0,0.1c0,0.1,0,0.1,0.1,0.2h0h0c0,0,0,0,0,0c0,0,0,0,0,0c-0.2,0-0.6-0.1-0.5,0.2c0,0,0,0.1,0,0.2
		c-0.1,0.1-0.2,0.3-0.1,0.4c0-0.1,0.1-0.1,0.2-0.2c0,0.1,0.1,0.1,0.1,0.1c0.1,0.1,0.3-0.2,0.5-0.1c0,0,0,0,0,0
		c-0.2,0.1-0.4,0.2-0.3,0.4c0,0,0,0.1,0.1,0.1c-0.1,0.1,0,0.4,0.2,0.4c0-0.1-0.1-0.2,0-0.3c0.1,0,0.2,0,0.2,0
		c0.4-0.2,0.1-0.5,0.3-0.6c0.1-0.1,0.3,0.2,0.6,0c0.1-0.1,0.1-0.2,0.1-0.3c0,0,0,0,0,0c0.1,0.1,0.2,0.2,0.3,0.1
		c-0.2-0.2,0-0.3,0.1-0.5c0,0,0,0,0.1,0c0.1,0,0.3,0,0.4-0.2c-0.2,0-0.6-0.2-0.3-0.3c0.4-0.1,0.5-0.4,0.3-0.6
		c-0.3-0.4-0.9-0.4-1-0.9H89c2,0,3.2-0.5,3.2-1.2c-0.1-1.3-5.9,0.1-5.9-0.9C86.2,198.7,86.6,198.5,87,198.4 M82.8,198.6
		c0.1,0.1,0.5,0.2,0.6,0.3c-0.3,0.1-0.2,0.2-0.4,0.2C82.8,199,82.7,198.7,82.8,198.6 M82.4,198.4c-0.1,0.1-0.3,0.3-0.4,0.1
		c-0.1-0.1,0-0.2-0.2-0.4C82,198.2,82.2,198.3,82.4,198.4 M81.7,199.7c0.1-0.1,0.1-0.2,0.2-0.2c0.1,0,0.2,0,0.2-0.1
		c0-0.1-0.1-0.2-0.2-0.3c0.1,0,0.2-0.1,0.1-0.2c-0.1-0.1-0.2,0-0.2,0c0-0.1,0.1-0.1,0.1-0.2c0.1,0,0.1,0,0.2,0l0.5,0.3
		c0.1,0.1,0.1,0.1,0.1,0.2c0,0.1,0,0.2,0,0.2c-0.1,0,0-0.2-0.1-0.2c-0.1,0-0.1,0.1,0,0.2c-0.1,0-0.2-0.1-0.3,0
		c-0.1,0.1,0,0.2,0.1,0.3c0,0.1,0,0.2,0,0.3c0,0.1-0.2,0.3-0.4,0.2C81.7,200,81.7,199.8,81.7,199.7 M-8.2,95.9
		c0-0.8-0.6-1.4-1.4-1.4l0,0c-0.8,0-1.4,0.7-1.4,1.5c0,0.7,0.6,1.3,1.4,1.4C-8.8,97.3-8.2,96.7-8.2,95.9 M-8.7,92.1
		c0-0.8-0.6-1.4-1.4-1.4c-0.8,0.1-1.4,0.8-1.3,1.5c0.1,0.7,0.6,1.2,1.3,1.3C-9.3,93.5-8.7,92.9-8.7,92.1
		C-8.7,92.1-8.7,92.1-8.7,92.1 M-7.9,90.4c0.8,0,1.5-0.6,1.5-1.4c0-0.8-0.6-1.5-1.4-1.5c0,0-0.1,0-0.1,0c-0.8,0.1-1.4,0.8-1.3,1.5
		C-9.1,89.8-8.6,90.4-7.9,90.4 M-4.1,90.2c0.8,0,1.5-0.6,1.5-1.4c0-0.8-0.6-1.5-1.4-1.5c0,0-0.1,0-0.1,0c-0.8,0.1-1.4,0.8-1.3,1.5
		C-5.3,89.6-4.8,90.1-4.1,90.2 M12.1,87.6c0.6,0.6,1.5,0.6,2,0c0.6-0.6,0.6-1.5,0-2l0,0c-0.6-0.6-1.5-0.6-2,0
		C11.6,86.1,11.6,87,12.1,87.6 M11.8,84.5c0.6-0.6,0.6-1.5,0-2c-0.6-0.6-1.5-0.6-2,0c-0.6,0.6-0.6,1.5,0,2S11.2,85.1,11.8,84.5
		 M8,83.9c0.5-0.6,0.5-1.5,0-2c-0.6-0.6-1.5-0.6-2,0s-0.6,1.5,0,2C6.5,84.4,7.5,84.4,8,83.9 M4.8,86.3c0.6-0.6,0.6-1.5,0-2
		c-0.6-0.5-1.5-0.5-2,0c-0.6,0.6-0.6,1.5,0,2C3.3,86.9,4.2,86.9,4.8,86.3 M-4.3,84.3l1.1,2.5l1.4-1.7c0.1,0,0.1,0.1,0.2,0.1
		c0.1,0.8,0.2,2.3,0.2,3.1c0,1,0.8,1.8,1.8,1.8c1,0,1.8-0.8,1.8-1.8c0-0.7-0.4-1.3-0.9-1.6c-0.7-0.6-1.4-1.2-2-1.9
		c0-0.1,0.1-0.1,0.1-0.2l2.4,0.2l-1-2.6L-1,83.7c0,0-0.1,0-0.1-0.1L-1.2,81L-3.7,82l1.7,2c0,0.1-0.1,0.1-0.1,0.2L-4.3,84.3
		L-4.3,84.3z M12.2,88.8c0.6,0.9,0.8,1.3,0.8,2c-0.4-0.2-0.9-0.6-1.5-1.4l0.3,3.3c0.4-0.6,0.7-1,1.2-1.2c-0.1,2.2-1,3.1-1.7,3.2
		c-0.8,0.2-1.5-0.3-1.7-1.1c0,0,0,0,0,0c-0.2-1,0.7-1.6,1.5-0.7c0.2-2-1.5-2-2.1-1.1c0.8-1.9,0.5-3.2-1.2-4.2
		c-1.1,1.8-0.6,3,0.7,4.4c-1.3-0.7-2.5,0.5-1.3,1.9c0.2-1.3,1.4-1,1.6,0c0.2,0.9-0.6,2-2,2.4c-2,0.6-2.7-0.7-3.2-1.8
		C3.9,94.2,5,94.3,6.2,95l-1-3.2c-0.3,0.9-1,1.6-2,2c-0.1-0.9,0.6-2.8,0.6-2.8l-3.9,1.6c0,0,1.8,0.9,2.4,1.6c-0.8,0.3-1.6,0.5-2.8,0
		l1.6,3c0.3-1.3,1-2.2,1.5-2.3c0.4,1.1,0.9,2.5-1,3.5C0.3,99-1.1,98.8-1.5,98c-0.5-0.9,0.1-1.9,1.1-1.2C-0.6,95-2.2,95-2.7,96.4
		c0-1.9-0.5-3.1-2.5-3.6c-0.5,1.9,0.2,3.1,2.1,3.9c-1.1-0.1-2.3,1-0.8,2.3c0-1.2,1-1.4,1.6-0.5c0.4,0.6,0.2,1.5-0.4,1.9
		c0,0,0,0-0.1,0c-0.6,0.4-1.9,0.4-3.5-1.1c0.5-0.2,1-0.1,1.7,0l-2.1-2.6c0.1,0.9,0.1,1.6-0.1,2c-0.4-0.5-0.6-1-0.8-2l-1.6,1.4
		c1.5,0.9,3.3,2.4,5.4,5.3c2.2-1.4,6.2-3.3,8.7-4.3c2.5-1,6.7-2.4,9.2-3c-0.5-3.6-0.3-5.8,0.2-7.6L12.2,88.8L12.2,88.8z M43.5,179.4
		c0.6-1.5-2.2-3.2-2.6-5.4c-0.3-2.2-0.1-4.3-2.6-7.2c-2.5-2.9-11-12-13.6-14.9c0.6-0.1,2.2-0.4,3.7,1.1c0.9,0.9,2.7,2.6,4.4,4.3
		c2.3-5.8,5.1-10.1,9.1-14.5c0.5-0.6,1-1.1,1.6-1.7c-1.5,0.4-3.7,0.8-5.1,1.7c-0.1-2.5,0.1-4.5-1.6-6.1c0.7-3.5,0.1-7.7-7.8-12.9
		c4,1,6.4,4.6,9.5,1.8c-2.8-0.1-2.8-6.1-12.8-11.1c3.8-0.1,6.8,6.1,11.2,2.6c-4.2-0.5-5.5-7.9-13-10.1c2.6,0.3,5.3,1.6,7.5-1.4
		c-2.6,0.6-4.1-1.8-6.9-2c1.1-3.2,0.8-5.2-0.3-7.6c-1.9,0.1-3.9,0.7-5.4,1.9c-0.2-1.8-2.1-1.9-3.7-1.8c0.1,0.8,0.5,1.9-0.4,2
		c-1.3,0.3-5.8,1.5-9.2,2.8c-3.4,1.3-7.4,3.8-8.5,4.6c-0.7,0.5-1.3-0.6-1.7-1.2c-1.2,1-2.4,2.4-1.5,3.7c-1.9,0.2-4,0.7-5.8,2.1
		c0,2.2,1.8,4.4,4.6,5.6c-4.6,4.6-0.4,8.8-4.5,12.8c5.7,0.2,4.7-7.7,7.6-8.9c-0.3,5.6-3.4,6.6-3.4,12.6c0,3.2,1.9,6.7,0.2,8.8
		C-2.7,139.6-4,129-1,125.8c0.5,1.8,0.2,3.6-0.4,5.4c-1.7,4.9,0.2,11.7-2.4,13.9c4.9-0.5,5.5-8.3,9.5-11.2
		c-3.4,7.1-7,22.1-12.1,29.6c-8.3,11.2-13.2,24.9-20.8,24.9c-3.4,0-5.9-2.1-5.9-6.3c0-12.8,21.9-21.5,21.9-35.1c0-6-4.9-8.4-8-8.4
		c-2.1,0-4.6,1-6.7,2.8c-0.8-0.3-1.7-0.5-2.6-0.6c-7.7,0-5.7,13.9-12.4,13.8c2.7,1.5,7.3-1.4,10-5.3c-1.1,9-14.1,6.6-13.1,17.4
		c1.8-8.5,22.5-7.2,22.5-20.1c0-1.5-0.7-2.7-1.8-3.6c1.6-1,3-1.4,4.4-1.4c2.5,0,4.7,1.8,4.7,5.5c0,11.4-21.8,21-21.8,35
		c0,2.4,0.7,4.3,1.8,5.9c-1.5,0.7-3.1,0.4-4.4-1.2c-0.1,3.6,5,5.9,8.3,4.1c0.7,0.3,1.5,0.4,2.3,0.5c-1,2.7-4.3,3.5-6,3.4
		c5.3,4.2,14.6-1.3,14.1-6.1c4.2-3.4,6.9-9.2,10-13.1c-0.2,0.9-0.4,1.8-0.5,2.6c-3.1,5.7-6,10.7-6.9,18.2
		c-0.7,6.3-3.8,11.9-8.2,11.9c-1,0-2.5-1.3-3.3-0.6c-1.4,1.2-0.1,2.4-0.1,3.6c0,1.8-3.4,3.5-3.4,9c0,2.5,1.4,5.4,0.9,7.1
		c1.4-0.7,3.3-3.1,4-6.1c1.5,7.2-3.1,6.9,0.2,13.4c0.4-2.1,2.5-3,3.8-2.1c1.3,0.9,0.7,1.5-0.3,2.5c-1,1-1.9,5.8,2.5,5.5
		c-0.8-0.5-0.9-1.8,1.3-2.3c3-0.6,3.9,0.8,7.1,0.8c2,0,2.5-2.6,4.1-2.6c1.6,0,1.6,1.2,1,2.1c2.5-0.7,3-2,3-3.5
		c0-1.4-1.2-2.3-0.3-2.9c0.9-0.6,3.8,0.1,2.7,2.5c1.5-0.3,2.3-1.4,2.3-3.2s-2.1-2.9-4.1-2.6c-0.3-1.2-2.1-1.8-3.6-1.8
		c-3.6,0-3,2.8-5.5,2.8c-3.9,0-7.7-5.1-7.7-13.7c0-4.6,4.9-5.8,8.4-7.3c3.5-1.5,9.6-5.3,13.3-11.4c2.9-4.8,3-10.1,2.6-16.4
		c4.9,2.8,5.5,6.9,5.5,9.9c0,3.8-2,5.4-3.6,6.1c-1.3,0.6-1.8,0.4-1.9,1.1c-0.2,1,0.5,1.5,1.1,1.9c1.8,0.9,1.4,2.6,1.9,4.5
		c0.5,1.8,2.1,4.8,4.9,6.9c0.3-1.1,0.2-3,0-5.4c3.8,1.9,0.8,9.5,8.1,9.5c-1.4-0.8-1-2.8-0.2-3.1c0.8-0.3,1.8,0.5,3.2,2.5
		c1.4,2,1,1.8,4.5,1.8c3.5,0,1.9-1.2,3.8-1.2c1.8,0,1.7,2.1,0.7,3.7c3.1-0.9,4-3.3,3-5.7c2.7-1.5,4.2,0.6,4.6,2.1
		c2.7-2.7,0-6-2.1-6.2c0.1-1-0.9-2.1-2-2.1c-1.1-0.1-2.2-0.1-3.5-0.1c-1.3,0.1-2,1.9-3.5,1.9c-4.6,0-13.7-8.4-13.7-12
		c0-3.6,8.7-5.8,8.7-11.4c0-7.3-7.2-9.8-13.3-14.5c2.2-2.4,8.5-3,12.1-1.2c0.4-2,1.7-1.5,2.2-5.1c1.3,3.1,0,5.8,1.3,7.1
		c1-1.5,3.6-1.3,3.5-5.1c0.8,2.4-1,6.1,0.8,7.7c0.3-2,1.5-2.4,2.2-2.4c0.7,0,1.4,0.5,1.4,1.7c0,2.9-3.6,1.6-3.6,4.9
		c0,1.4,1.8,1.9,1.8,2.8c0,0.9-1.4,2.3-3.2,1.1c0.6,1.3,1.7,2.4,3.2,2.4c1.6,0,3.3-1.3,4-2.9c0.8,2.1,0.2,4.4-1.3,4.7
		c1.6,0.8,5.4,0,4.9-4.8c2.1,0.4,3.3,1.8,2,4.4c1.8-0.4,3.4-1.3,3.4-3.1C44.3,181.7,42.8,181.3,43.5,179.4 M2.1,113.3
		c-2,0.2-1.9-1.7-5.5-2.6c2.5-0.5,5.6-1.7,8.4-2.8C5.6,110.3,4.7,113.1,2.1,113.3 M16.3,128.3c-2.6,1.1-4.6-1.1-5.1-2.7
		c-0.5-1.6-0.9-2.8-0.3-3.4c1.1-1.1,1.5-1.9,0.8-3.3c-0.8-1.6-2.4-0.8-4.2-0.4c0.8-1.5,0.9-2.6-0.2-2.4c-1.4,0.2-1.4,2.4-2.1,2.1
		c-0.8-0.3-0.3-1.5-0.3-2.2c0-0.9,0.6-1.3,1.6-1.7l7.4-2.8c1-0.4,1.6-0.5,2.3,0.1c0.5,0.5,1.7,1.1,1.3,1.8c-0.4,0.7-1.9-0.8-3,0
		c-0.9,0.7-0.1,1.4,1.5,1.9c-1.6,0.9-3.3,1.6-2.8,3.2c0.5,1.4,1.3,1.8,2.9,1.8c0.8,0,1.4,1.2,2.1,2.7
		C18.8,124.5,19,127.2,16.3,128.3 M16.7,107.6c-2,1.6-4.6,0.1-5.8-1.9c2.7-1.1,5.9-2.4,8.1-3.7C17,105,18.3,106.4,16.7,107.6
		 M182.9,214.6c0.1,3.4,2.9,6.1,6.3,6c3.3-0.1,5.9-2.7,6-6c0-3.4-2.8-6.2-6.1-6.2C185.6,208.4,182.9,211.2,182.9,214.6 M184.5,214.6
		c0-2.5,2.1-4.6,4.6-4.6c2.5,0,4.6,2,4.6,4.6c0,2.5-2,4.6-4.6,4.6C186.5,219.2,184.5,217.1,184.5,214.6 M159.9,220.3
		c-0.8,0.5-1.3,1.3-1.5,2.3c-0.2,1.1,0.1,2.2,0.9,3.1c0.8,0.8,1.8,1.4,3.1,1.7c1.2,0.2,2.4,0.1,3.5-0.5c1.1-0.6,1.8-1.5,2-2.5
		c0.4-2.1-1.4-4.3-4-4.7C162.4,219.3,161,219.5,159.9,220.3 M162.7,225.7c-1.8-0.3-3-1.6-2.8-2.9c0.1-0.5,0.4-1,0.9-1.3
		c0.7-0.5,1.7-0.7,2.7-0.5c1.6,0.3,2.8,1.4,2.8,2.6c0,0.1,0,0.2,0,0.3C166.1,225.3,164.5,226,162.7,225.7 M126.1,134
		c-1.9,1.5-2.5,4-1.3,5.6h0c1.2,1.6,3.8,1.6,5.7,0.2c1-0.8,1.7-2,1.9-3.1c0.1-0.9-0.1-1.7-0.6-2.4c-0.5-0.7-1.3-1.1-2.2-1.2
		C128.4,132.8,127.1,133.2,126.1,134 M125.7,137.6c0-0.8,0.5-1.7,1.3-2.4c0.7-0.5,1.6-0.8,2.3-0.7c0.5,0,0.9,0.3,1.2,0.6
		c0.3,0.4,0.4,0.8,0.3,1.3c-0.1,0.8-0.6,1.6-1.3,2.1c-1.2,0.9-2.8,1-3.5,0.1C125.8,138.3,125.7,137.9,125.7,137.6 M152.7,210
		c-0.9,0.9-1.5,2.2-1.5,3.7v0.1c0,1.4,0.5,2.7,1.4,3.6c0.7,0.7,1.6,1.1,2.5,1.1c0.9,0,1.8-0.4,2.5-1c0.9-0.9,1.5-2.3,1.5-3.7
		c0-1.2-0.3-2.4-1-3.4c-0.7-1-1.7-1.5-2.8-1.5C154.3,209,153.4,209.4,152.7,210L152.7,210z M155.1,217L155.1,217
		c-0.5,0-1-0.2-1.4-0.6c-0.6-0.6-1-1.6-0.9-2.6c0-1,0.4-2,1-2.6c0.4-0.4,0.9-0.6,1.4-0.6c1.3,0,2.3,1.5,2.3,3.3c0,1-0.4,2-1,2.6
		C156.1,216.8,155.6,217,155.1,217L155.1,217z M155.1,218.6L155.1,218.6L155.1,218.6z M122.6,160.4c-0.9,0.3-1.7,1-2.1,1.8
		c-0.9,2,0.2,4.5,2.6,5.6c1.3,0.6,2.8,0.7,4,0.3c0.9-0.3,1.7-1,2.1-1.8c0.4-0.8,0.4-1.8,0.1-2.7c-0.4-1.2-1.4-2.3-2.7-2.9
		C125.3,160.1,123.8,159.9,122.6,160.4 M123.9,166.4c-1.6-0.8-2.4-2.3-1.9-3.5c0.3-0.6,0.8-0.9,1.2-1c0.8-0.3,1.8-0.2,2.8,0.2
		c0.9,0.4,1.6,1.2,1.9,2c0.1,0.4,0.2,1,0,1.5c-0.3,0.6-0.8,0.9-1.2,1C125.8,166.9,124.8,166.8,123.9,166.4"/>
	<path d="M187.2,154c2,5.5,6,7.5,9,6.1c-6.8-0.8-1.3-12.4-10-12.4c-0.5,0-1,0.1-1.4,0.2c-1.5-1.6-3.2-2.2-5.7-2.2
		c-3.7,0-10.1,3.6-10.1,10.9c0,15.9,18.4,17.3,18.4,31.3c0,4.1-3.1,6.6-6.6,6.6c-3.1,0-5.6-3.5-8.2-8.9c-1.2-2.6-3.9-6.1-6.8-9.8
		c0.8,0.6,1.8,0.9,2.7,1c1,0,1.9-0.3,2.6-0.9c0.7-0.6,1.1-1.5,1.1-2.5v-0.1c0-1.3-0.5-2.6-1.5-3.6c-1-1.1-2.3-1.7-3.6-1.7
		c-1,0-1.9,0.3-2.6,0.9c-0.7,0.6-1,1.5-1.1,2.5v0.1c0,0.5,0.1,1.1,0.3,1.6c-4-5.2-7.7-10.3-7.7-13c0-2.4,1.7-4.6,3.8-7.2l0.7,0.4
		l0.6-0.6c0.7-0.8,2.3-2.5,5.5-5.9l0.2-0.2l0,0l0.8-0.8l-2-1.6c0.5-1.2,1-2.5,1.3-3.9c0.6,2.5,1.9,4.2,3.7,3.7
		c-1.2-2.6,1.2-6.2-0.4-12.6c1.5,2.5,3.7,3.8,5.2,3.3c-4.1-3.6,1.2-8.7-4.1-16.5c1.7,0.6,2.9,0.3,3.7-0.6c-4.9-0.7-2.6-6.9-11.1-9.1
		c2.1-0.4,3.4-1.6,3-2.7c-2.2,1.6-4.2-3-11.6-2.9c-0.5-2.8-3-5.7-5.9-7.1c0.5,2.1,0,4.1-0.5,5.7l-24-23.6c-0.7-0.7-1.1-0.8-1.3-0.6
		c-0.2,0.2-0.2,0.7,0.3,1.2l20.6,25.9c-1.6,0.5-3.1,1.2-4.7,1.8c-1.1,0.4-1.8,1.5-1.8,2.7c-3.8,1.9-7.2,4.3-8.9,5.8
		c-1.3,1.2-2.3,1.4-1.2,4c0.4,1-0.9,3.4,2.1,1.6c2-1.2,6.4-3.6,7.1-2.1c0.4,0.8-1.8,1.8-3.4,2.4c-1.5,0.6-3.1,1.7-2.9,2.3
		c0.2,0.6,1.4,0,1.5,0.6c0.1,0.7,0.6,1.3,1.2,1.3c0.6,0,1.4-1.3,1.9-0.9c0.5,0.4-0.2,3.2-0.7,4c2.3-0.3,3.8-2.5,3.9-4.2
		c0.1-1.7,0.5-2.2,0.9-2.4c0.4-0.2,0.8,1.9,0.3,3.1c1.2-0.3,2.5-1.9,2.3-4.9c0.6-0.5,1.3-0.9,1.7-0.9c0.8,0,2.3,2.2,4.6,2.2
		c4.1,0,6.4-3.3,6.6-4.9c0.2-1.3,0.1-2.5-0.6-3.4c1.5,1.2,1.9,3,1.9,4.4c0,5.8-10.2,8.5-14.4,12.5c-0.2,0.1-0.3,0.3-0.5,0.4
		l-4.8-1.9l-0.3,1.1c-0.8,2.7-1.6,5.3-2.5,7.9c0,0-0.3,0.8-0.3,0.8l0.4,0.3c-2.9,3.8-5.1,8-5.7,12.4c-1.2-1.2-2.3-2.2-3.5-3.2
		c0.1-0.4,0.2-0.9,0.3-1.3c0.1-1.3-0.3-2.5-1.1-3.4c-0.6-0.7-1.4-1.1-2.2-1.1c-0.9,0-1.7,0.3-2.3,0.9c-0.2,0.1-0.3,0.3-0.4,0.4
		c-0.2-0.1-0.3-0.3-0.5-0.4c-1.6-1.2-3.5-2.7-4.7-4c-0.5-0.6-1-0.9-2.1-0.9c-0.4,0-1.4,0-2.1,0c-0.7,0-1.1,0.5-1.9,1.3
		c-0.4,0.3-1.5,1.2-2.7,2.1c0.6,0.6,1.2,1.2,1.7,1.9c0.3,0.3,0.6,0.7,0.9,1.1l0.8-0.6c0.5-0.4,1.2-0.5,1.8-0.5
		c0.6,0,1.5,0.5,2.1,1.4c2.4,3.2,4.9,6.3,7.5,9.3c-0.3,0.1-0.7,0.2-1,0.4c-1.4,0.6-4.5,0.5-5.9,0.3c-1.4-0.1-1.7-0.5-2.6,1
		c-0.4,0.6-0.8,1.2-1.3,1.8c-0.5,0.6-0.8,1.2,0.2,2.9c1.4,2.4,4.9,8.7,6.1,11.6c1.2,2.8,2.5,3.3,4.8,4.2c2.3,0.9,6.1,3.1,6.5,3.6
		l0.2-2.2c-0.7-0.7-2.8-1.5-3.6-1.8c-0.8-0.3-1-0.6-0.1-0.6c1,0,3.7,1,5.5,1.7c-0.6-2.1-2.6-4.5-3.8-5.8c-1.6-0.5-3.3-0.5-3.9,0
		c0.1,0.5-0.3,0.9-0.8,1c-0.1,0-0.1,0-0.2,0c-0.6,0-1-0.5-0.9-1.1c0.2-0.6,1.2-0.9,1-2.1c-0.2-1.2-1.7-1.4-2.7-1.5
		c-1.4-2-3-4.9-3.7-6.1c-0.7-1.2-0.3-1.8,0.2-2.2c1.2-1,3.6,0.5,8.5,0.8c1.7,0.1,3.8,0.2,6,0.3c0.6,5.7,2.9,11.1,10.8,13
		c3.9,1,7.8,3.8,9.2,7.5c-15.8-0.3-18.3,5.9-18.3,11.7c0,6.6,5.6,6.2,5.6,11.2c0,4.3-13.3,6.1-17.3,6.7c-3.4,0.5-5.3,1.3-7,2.9
		c-1.6,1.6-3.3,3.2-6.2,6.2c0,0,1.3,0.3,2.5,0.2l2.2-2.9c0.7-1,1.1-1.8,1.6-1.7c0.4,0.1,0.1,0.8-0.4,1.9l-1.8,3.1
		c7.8,0.5,8.3-2.4,8.3-3.5c0-1.2-1.9-2-0.8-2.7c1.1-0.7,2.1-0.2,3,0.8c0.9,1,1.2,1.9,3.3,1.1c0,0,17-7,19.1-8
		c1.9-0.9,1.4-1.7,0.2-2.7c-1.3-1-1.5-2.7-1.5-4.5c0-5.1,3.1-6.7,8.6-6.6c-0.1,0.9-0.2,1.7-0.2,2.5c0,8,12.1,15.8,15.4,15.8
		c1.5,0,3.4-1.1,3.5,3.7c0.1,3.5,0.8,6.1,0.2,10.2c-0.6,4.1-1.8,4.7-4.3,6.5c-2.5,1.7-4.8,7.2-5.8,8.3c1.1,0.7,2.3,0.8,3.2-1.8
		c0.8-2.2,1.6-3.7,2.6-4.3c-1,2.4-1.7,5.9-2.1,7c3.1,0.5,8.1-2.3,8.1-4.5c0-2.2-1.7-2-1.7-3.5c0-0.6,0.8-1.4,1.7-1.4
		c1.2,0,2.2,1,2.3,1.4c1.4-0.7,2.2-2.1,2.2-5.3c0-1.2-0.1-2.5-0.1-3.9c0.1,0.2,0.2,0.4,0.3,0.5c0.6,0.9,1.6,1.5,2.8,1.6
		c1.1,0.1,2.3-0.2,3.4-0.9c1.2-0.8,2.1-2,2.3-3.2c0.1-0.3,0.1-0.5,0.1-0.8c0-0.7-0.2-1.3-0.6-1.9c-0.5-0.8-1.3-1.3-2.3-1.5
		c-1.3-0.3-2.7,0-3.9,0.8c-1.1,0.7-1.9,1.8-2.3,3c-0.2-4.4-0.6-8.5-0.4-10.1c0.2-2.5,0.3-3.5-0.6-3.9c-0.8-0.4-1.7,1-2.9,1
		c-1.2,0-4.8-3.3-4.8-6.7c0-3.5,3.7-7.9,3.6-12.7c-0.1-1.5,0.9-2.3,1.5-0.9c0.7,1.6,1.8,3.8,3.4,5.6c-1,6,5.6,11.8,11,7.5
		c-2.7,0.4-4.5-2-5.7-4.4c0.5,0.1,0.9,0.1,1.5,0.1c0.3,0,0.5,0,0.8,0c1.9,2.3,7.9,2.1,9.5-3.7c-1.1,1.2-3.2,2.1-4.8,1.9
		c2.3-1.8,3.4-4.6,3.4-7.7c0-15.1-18.3-16.9-18.3-30.6c0-5.1,4.5-8.4,7.6-8.4c1.2,0,2.1,0.4,2.8,0.9c-1.2,1.2-1.8,3-1.7,5.2
		c0.5,10.9,18.2,10.3,18.5,15.5C201,162.2,187.7,164.6,187.2,154L187.2,154z M140,112.4c0.9-1.6,0-4.1,3-4.1c1.5,0,2.8,1.5,4.6,2
		C144.7,110.5,142.1,111.2,140,112.4z M123.8,145.7c0,0.8-0.4,1.6-0.9,2.2c-0.3,0.3-0.7,0.5-1.2,0.5c-1-0.1-1.8-1.2-1.8-2.6v-0.2
		c0-0.9,0.4-1.7,0.9-2.2c0.3-0.3,0.8-0.5,1.2-0.5c0.5,0,0.9,0.3,1.1,0.6C123.6,144,123.9,144.8,123.8,145.7L123.8,145.7z M176.2,222
		c0.2-0.8,0.8-1.7,1.6-2.3c0.9-0.6,1.9-0.8,2.7-0.6c0.4,0.1,0.9,0.3,1.3,0.8v0c0.3,0.5,0.3,1.1,0.2,1.5c-0.2,0.9-0.8,1.7-1.6,2.3
		c-1.5,1-3.3,0.9-4-0.2C176.2,223,176.1,222.5,176.2,222L176.2,222z M165.2,171.3c0-0.5,0.2-1,0.6-1.4c0.4-0.3,0.9-0.5,1.4-0.5
		c0.9,0,1.8,0.5,2.5,1.2c0.7,0.8,1.1,1.7,1.1,2.6c0,0.5-0.2,1-0.6,1.4l0,0c-0.4,0.3-0.9,0.5-1.4,0.5c-0.9,0-1.8-0.5-2.5-1.2
		C165.6,173.2,165.2,172.2,165.2,171.3L165.2,171.3z M135.1,137.2c0.9-2.7,2.5-8,2.5-8l2.8,1.1c-0.8,0.3-1.8,1.1-2.7,1.9
		c0.6,0.3,1.8,0.3,2.5-0.2l-1.1,2.8c-0.3-0.4-1-1.5-1.8-1.6c-0.6,2.3,0.8,3.1,1.9,3.6c1.7,0.9,2.8,1,3.3,0.2c0.5-1-0.6-2.3-2-1.7
		c-0.2-1.5,0.7-2.2,1.6-2.2c0.8,0,1.4,0.7,1.6,1.6c-0.1-2.4,1-4.2,3.2-4.9c0.8,2.3,0.1,3.9-1.6,5.5c0.9-0.4,2-0.3,2.4,0.3
		c0.5,0.8,0.3,1.9-1,2.6c-0.3-1.5-2.1-1.7-2.6-0.7c-0.5,1,0.3,1.9,1.8,2.8c1.8,1,3.3,0.4,4.2-1.2c-0.6-0.2-1.6-0.1-2.6,0.5l1.9-3.5
		c0.1,0.5,0.4,1.4,1.2,2c0.3-0.8,0.7-2.1,0.1-3.4l4,2.3c-1.4,0.1-2.3,1.1-2.9,1.8c1,0.3,1.9,0.2,2.4,0l-2.1,3.3
		c0-1.1-0.4-2.1-0.8-2.5c-0.9,1.6-0.7,3.2,1.1,4.3c1.6,0.9,2.7,1.1,3.3,0.2c0.6-0.9-0.4-2.4-1.9-1.9c-0.1-1.5,0.8-2.2,1.8-2.1
		c0.8,0.1,1.3,0.9,1.5,1.9c0.6-2.3,1.6-3.7,4-4.1c0.5,2.2-0.6,4.1-2.7,5.2c0.9-0.3,1.8-0.1,2.2,0.5c0.5,0.8,0.2,1.9-1.1,2.5
		c-0.2-1.5-1.9-1.8-2.5-0.9c-0.4,0.8,0.2,1.7,1.8,2.7c1,0.6,2.4,1.4,4.1-0.2c-0.6-0.6-1.8-0.8-2.3-0.8l1.9-2.4
		c-0.1,0.9,0.6,1.9,1.1,2.3c0.3-1.2,0.4-2.4,0.3-3.3l2.3,1.9c0,0-3.8,4-5.6,6.1L135.1,137.2L135.1,137.2z M160,199.8
		c-1,1.4-2.7,1.9-3.9,1.1c-1.1-0.8-1.2-2.6-0.2-4c1-1.4,2.7-1.9,3.8-1.2C160.9,196.6,161,198.4,160,199.8L160,199.8z M167.2,188.4
		c-1,1.4-2.7,1.9-3.8,1.1c-1.1-0.8-1.2-2.6-0.2-4c1-1.4,2.7-1.9,3.8-1.1C168.1,185.1,168.2,186.9,167.2,188.4L167.2,188.4z"/>
</g>
</svg>
