<svg width="180" height="37" fill="none" xmlns="http://www.w3.org/2000/svg"><g clip-path="url(#clip0_2005_438)"><path d="M179.863 23.58l-5.072 5.965h-38.123l5.147-6.148a.205.205 0 00-.156-.337h-14.337c-6.553 0-11.568-2.71-14.513-7.205h48.113c.488 0 .753.572.437.945l-4.937 5.841h23.008c.487 0 .752.57.439.943l-.006-.003z" fill="url(#paint0_linear_2005_438)"/><path d="M121.108 0c-10.204 0-18.507 8.3-18.507 18.502 0 3.884 1.253 7.713 3.539 10.86H84.536a1.626 1.626 0 01-1.509-1.01 1.628 1.628 0 01.355-1.779l16.912-16.905c1.828-1.828 2.415-3.993 1.608-5.938-.804-1.945-2.75-3.059-5.337-3.059H69.962a.673.673 0 00-.476 1.15 23.594 23.594 0 014.232 5.694c.117.22.343.358.596.358h13.637a1.631 1.631 0 011.154 2.789L72.194 27.566c-1.828 1.828-2.416 3.992-1.609 5.937.805 1.945 2.75 3.06 5.337 3.06h39.184a.678.678 0 00.19-.028h1.707c1.35.307 2.729.464 4.102.464 3.024 0 5.906-.71 8.566-2.11a.673.673 0 00.208-1.02l-3.816-4.683a.677.677 0 00-.771-.199 11.212 11.212 0 01-4.187.807c-6.231 0-11.3-5.067-11.3-11.297 0-6.229 5.069-11.296 11.3-11.296 4.304 0 8.177 2.403 10.108 6.271a1.62 1.62 0 01-.072 1.587c-.302.485-.82.774-1.389.774h-8.611a.676.676 0 00-.515 1.11l4.964 5.86a.7.7 0 00.515.259h12.408a.68.68 0 00.657-.539 18.45 18.45 0 00.443-4.026c0-10.2-8.301-18.501-18.505-18.501V0z" fill="#fff"/><path d="M62.868 15.837h-8.614a.677.677 0 00-.514 1.111l4.963 5.856a.68.68 0 00.515.238h2.43c.055 0 .109 0 .217.009h6.927c1.934-.057 3.605-1.55 3.895-3.505.02-.355.039-.704.039-1.047 0-10.201-8.3-18.502-18.505-18.502a18.5 18.5 0 00-17.857 13.654A18.504 18.504 0 0018.504.001C8.302 0 0 8.3 0 18.5 0 28.701 8.3 37 18.505 37c3.023 0 5.906-.712 8.568-2.111a.67.67 0 00.208-1.02l-3.816-4.683a.675.675 0 00-.771-.199 11.197 11.197 0 01-4.186.807c-6.232 0-11.3-5.067-11.3-11.296 0-6.23 5.068-11.294 11.296-11.294 4.304 0 8.177 2.403 10.108 6.271a1.62 1.62 0 01-.072 1.587c-.301.485-.82.774-1.389.774h-8.61a.674.674 0 00-.515 1.111l4.963 5.856a.68.68 0 00.515.238h2.43c.055 0 .109 0 .214.009h9.216c.2.018.476.075.615.196.262.226.458.59.846 1.565l.024.054A18.495 18.495 0 0054.22 37c3.023 0 5.905-.71 8.568-2.11a.669.669 0 00.208-1.021l-3.816-4.682a.675.675 0 00-.771-.199 11.197 11.197 0 01-4.187.807c-6.231 0-11.3-5.067-11.3-11.296 0-6.23 5.069-11.297 11.3-11.297 4.304 0 8.177 2.403 10.108 6.271a1.62 1.62 0 01-.072 1.587c-.302.485-.82.774-1.389.774v.003z" fill="#fff"/></g><defs><linearGradient id="paint0_linear_2005_438" x1="112.806" y1="22.699" x2="179.999" y2="22.699" gradientUnits="userSpaceOnUse"><stop stop-color="#1D62C8"/><stop offset=".28" stop-color="#1C89D7"/><stop offset=".3" stop-color="#1F91CB"/><stop offset=".38" stop-color="#26A4AF"/><stop offset=".47" stop-color="#2CB39A"/><stop offset=".56" stop-color="#30BE8A"/><stop offset=".67" stop-color="#33C581"/><stop offset=".83" stop-color="#34C77F"/></linearGradient><clipPath id="clip0_2005_438"><path fill="#fff" d="M0 0h180v37H0z"/></clipPath></defs></svg>